<svg xmlns="http://www.w3.org/2000/svg" width="360" height="720" style="shape-rendering:geometricPrecision;text-rendering:geometricPrecision;image-rendering:optimizeQuality;fill-rule:evenodd;clip-rule:evenodd"><path style="opacity:.998" fill="#ec6037" d="M0 0h258a70227 70227 0 0 0 4 354l-6 4a1010 1010 0 0 0-76-11L0 322v-89l83 29-83-49V0Z"/><path style="opacity:.987" fill="#5bb1db" d="M348 0h12v251l-97 56a12204 12204 0 0 1-2-120L348 0Z"/><path style="opacity:.992" fill="#f0c93f" d="M180 347c7 0 15 1 23 4l157 239v112L220 449l39 271H0V429l180-82Z"/></svg>