<svg width="171" height="117" viewBox="0 0 171 117" fill="none" xmlns="http://www.w3.org/2000/svg">
<g clip-path="url(#clip0_1243_218)">
<path opacity="0.887" fill-rule="evenodd" clip-rule="evenodd" d="M122.81 -0.0861816C123.27 -0.0861816 123.73 -0.0861816 124.19 -0.0861816C125.207 0.38443 125.983 1.13156 126.517 2.1552C128.098 6.32382 128.903 10.6342 128.931 15.0862C128.272 16.3418 127.324 16.6004 126.086 15.8621C125.593 15.3631 125.162 14.8171 124.793 14.2242C123.29 11.2077 121.853 8.16168 120.483 5.08623C119.407 2.4619 120.183 0.737774 122.81 -0.0861816Z" fill="#10401B"/>
<path opacity="0.881" fill-rule="evenodd" clip-rule="evenodd" d="M139.707 0.258606C141.952 0.303699 143.82 1.16577 145.31 2.84481C145.538 3.34585 145.595 3.86309 145.483 4.39654C143.147 8.51297 140.474 12.3923 137.466 16.0345C135.853 16.5499 134.876 15.9752 134.534 14.3103C135.451 9.7524 136.859 5.35585 138.759 1.12067C139.057 0.792759 139.373 0.505402 139.707 0.258606Z" fill="#10401B"/>
<path fill-rule="evenodd" clip-rule="evenodd" d="M122.983 1.12068C123.818 1.00696 124.479 1.29432 124.966 1.98275C125.592 2.99859 126.052 4.09054 126.345 5.25861C127.317 8.41335 127.748 11.6317 127.638 14.9138C127.077 15.1397 126.646 14.9673 126.345 14.3965C124.506 11.1208 122.897 7.73002 121.517 4.22413C120.858 2.61266 121.346 1.57818 122.983 1.12068Z" fill="white"/>
<path fill-rule="evenodd" clip-rule="evenodd" d="M140.052 1.46552C141.844 1.61411 143.281 2.38998 144.362 3.7931C142.329 7.42919 140.059 10.9062 137.552 14.2241C137.255 14.5788 136.911 14.8662 136.517 15.0862C136.106 14.9336 135.847 14.6462 135.741 14.2241C136.631 10.1489 137.866 6.18343 139.448 2.32758C139.62 2.01326 139.821 1.72591 140.052 1.46552Z" fill="white"/>
<path opacity="0.886" fill-rule="evenodd" clip-rule="evenodd" d="M154.017 9.05175C156.198 9.01912 157.462 10.0823 157.81 12.2414C157.84 12.7809 157.696 13.2695 157.379 13.7069C156.833 14.2529 156.287 14.7989 155.741 15.3449C152.578 17.1567 149.359 18.8809 146.086 20.5173C145.067 20.9873 144.032 21.0449 142.983 20.6897C142.094 19.7783 142.065 18.83 142.897 17.8449C145.594 15.0308 148.497 12.4733 151.603 10.1724C152.405 9.74238 153.209 9.36882 154.017 9.05175Z" fill="#10401B"/>
<path fill-rule="evenodd" clip-rule="evenodd" d="M154.017 10.2586C155.185 10.1097 156.018 10.5694 156.517 11.6379C156.647 12.1212 156.59 12.581 156.345 13.0172C155.914 13.4482 155.483 13.8793 155.052 14.3103C151.74 16.2425 148.349 18.0241 144.879 19.6551C144.431 19.7877 144 19.7589 143.586 19.5689C143.497 19.2605 143.554 18.9731 143.759 18.7069C145.931 16.3615 148.258 14.2064 150.741 12.2413C151.793 11.4871 152.884 10.8261 154.017 10.2586Z" fill="white"/>
<path opacity="0.935" fill-rule="evenodd" clip-rule="evenodd" d="M170.914 37.3276C170.914 37.7874 170.914 38.247 170.914 38.7069C170.462 40.1295 169.859 41.5088 169.103 42.8448C168.269 44.0524 167.522 45.3167 166.862 46.6379C166.175 49.2091 165.543 51.7953 164.966 54.3965C163.618 59.6529 160.256 62.5553 154.879 63.1034C154.62 63.2039 154.391 63.3476 154.19 63.5345C156.111 64.6814 157.346 66.3481 157.897 68.5345C158.682 71.3722 158.854 74.2458 158.414 77.1551C157.092 82.831 153.558 85.1586 147.81 84.1379C143.63 82.9205 139.377 82.0296 135.052 81.4655C134.592 81.4943 134.132 81.5229 133.672 81.5517C129.444 84.2312 125.019 84.6334 120.397 82.7586C119.622 82.4001 118.875 81.9979 118.155 81.5517C115.701 81.4624 113.288 81.7496 110.914 82.4138C108.194 83.0034 105.493 83.6357 102.81 84.3103C98.81 84.7384 95.9076 83.1579 94.1034 79.5689C92.7291 75.2015 92.9015 70.8912 94.6207 66.6379C95.3058 65.2919 96.3115 64.2574 97.6379 63.5345C97.437 63.3476 97.2072 63.2039 96.9483 63.1034C91.5714 62.5553 88.2094 59.6529 86.8621 54.3965C86.285 51.7953 85.6528 49.2091 84.9655 46.6379C84.3053 45.3167 83.5581 44.0524 82.7241 42.8448C81.9687 41.5088 81.3652 40.1295 80.9138 38.7069C80.9138 38.247 80.9138 37.7874 80.9138 37.3276C81.4402 36.1343 82.1586 35.0424 83.069 34.0517C85.2411 31.7064 87.5686 29.5512 90.0517 27.5862C92.7142 25.5007 95.7027 24.0926 99.0172 23.362C97.7951 20.3184 98.7147 18.2207 101.776 17.0689C102.751 16.5347 103.785 16.3623 104.879 16.5517C105.246 16.7451 105.562 17.0037 105.828 17.3276C107.007 19.342 108.099 21.411 109.103 23.5345C109.506 24.3405 109.995 25.0876 110.569 25.7758C113.083 23.3689 115.899 21.3862 119.017 19.8276C123.219 18.3377 127.472 18.1653 131.776 19.3103C136.284 21.2464 140.135 24.0626 143.328 27.7586C143.787 27.8736 144.247 27.8736 144.707 27.7586C145.528 26.6922 146.39 25.6577 147.293 24.6552C148.823 23.4452 150.548 23.0429 152.466 23.4483C155.002 23.8339 157.359 24.696 159.534 26.0345C163.731 28.8508 167.38 32.2705 170.483 36.2931C170.628 36.657 170.772 37.0019 170.914 37.3276ZM104.362 64.9138C103.034 63.9439 101.54 63.3979 99.8793 63.2758C100.976 61.3981 101.867 59.4153 102.552 57.3276C102.885 59.9262 103.489 62.455 104.362 64.9138ZM147.466 64.9138C148.339 62.455 148.942 59.9262 149.276 57.3276C149.961 59.4153 150.852 61.3981 151.948 63.2758C150.288 63.3979 148.794 63.9439 147.466 64.9138Z" fill="#10401B"/>
<path fill-rule="evenodd" clip-rule="evenodd" d="M130.397 63.8793C130.395 63.5024 130.222 63.3588 129.879 63.4483C129.435 63.8305 129.32 64.2615 129.534 64.7414C129.362 70.0289 128.155 75.0865 125.914 79.9138C123.877 75.3529 122.612 70.5827 122.121 65.6034C122.324 64.915 122.468 64.2253 122.552 63.5345C122.356 63.2395 122.098 63.1533 121.776 63.2758C121.511 63.609 121.309 63.9826 121.172 64.3965C121.11 67.9807 121.627 71.4864 122.724 74.9138C123.68 77.2567 124.514 79.6417 125.224 82.069C125.253 82.5 125.052 82.7012 124.621 82.6724C123.301 82.3855 122.007 82.0121 120.741 81.5517C111.477 76.6831 105.931 69.0683 104.103 58.7069C103.528 54.7383 103.557 50.7727 104.19 46.8103C103.992 45.8346 103.561 45.7196 102.897 46.4655C102.859 50.8702 102.054 55.1229 100.483 59.2241C100.038 60.4462 99.4634 61.5955 98.7586 62.6724C98.1512 62.2584 97.4903 61.9424 96.7759 61.7241C93.3878 61.5119 90.8878 59.9314 89.2759 56.9827C88.0157 54.1788 87.2111 51.2477 86.8621 48.1896C86.6322 47.5 86.4023 46.8103 86.1724 46.1207C84.9355 44.1072 83.7861 42.0383 82.7241 39.9138C81.9705 38.3046 82.2004 36.8677 83.4138 35.6034C86.0427 32.7443 88.8875 30.1293 91.9483 27.7586C94.2666 26.0829 96.8528 25.0771 99.7069 24.7414C99.9483 25.6948 100.293 26.6145 100.741 27.5C100.233 27.6415 99.716 27.7277 99.1897 27.7586C98.875 28.0114 98.7888 28.3274 98.931 28.7069C99.4614 28.8427 100.007 28.929 100.569 28.9655C101.109 29.3324 101.597 29.7634 102.034 30.2586C103.306 32.3964 104.168 34.6952 104.621 37.1552C104.908 38.0746 105.195 38.0746 105.483 37.1552C105.553 36.515 105.553 35.8829 105.483 35.2586C109.31 40.4057 114.338 43.7677 120.569 45.3448C121.45 45.5183 122.341 45.6045 123.241 45.6034C124.193 45.5415 125.142 45.5129 126.086 45.5172C130.161 49.2277 133.178 48.5093 135.138 43.3621C135.322 42.3172 134.977 42.0872 134.103 42.6724C133.677 44.3629 132.729 45.656 131.259 46.5517C130.476 46.6779 129.729 46.5631 129.017 46.2069C128.213 45.6322 127.408 45.0574 126.603 44.4827C121.348 44.7419 116.578 43.3626 112.293 40.3448C105.912 35.2602 101.716 28.7372 99.7069 20.7758C99.8583 20.0183 100.261 19.4148 100.914 18.9655C101.976 18.2598 103.125 17.8576 104.362 17.7586C104.621 18.0172 104.879 18.2758 105.138 18.5345C106.383 21.1974 107.762 23.7836 109.276 26.2931C112.651 31.0698 117.277 33.455 123.155 33.4483C123.385 33.1608 123.385 32.8736 123.155 32.5862C120.54 32.2196 118.011 31.53 115.569 30.5172C114.107 29.5405 112.757 28.4198 111.517 27.1552C111.402 26.9827 111.402 26.8103 111.517 26.6379C114.052 24.1205 116.954 22.1377 120.224 20.6896C123.165 19.9419 126.154 19.7121 129.19 20C134.393 21.4788 138.703 24.295 142.121 28.4483C143.304 29.159 144.511 29.2164 145.741 28.6207C146.538 27.5358 147.401 26.5014 148.328 25.5172C149.947 24.4498 151.671 24.2774 153.5 25C155.9 25.5107 158.084 26.4877 160.052 27.931C163.584 30.6015 166.717 33.6764 169.448 37.1552C169.606 38.1086 169.491 39.0281 169.103 39.9138C168.042 42.0383 166.892 44.1072 165.655 46.1207C164.954 48.2607 164.436 50.4446 164.103 52.6724C163.49 55.3071 162.312 57.6346 160.569 59.6552C158.718 60.9808 156.649 61.7279 154.362 61.8965C153.953 62.1008 153.551 62.3019 153.155 62.5C152.993 62.4814 152.849 62.424 152.724 62.3276C150.185 57.3514 148.92 52.064 148.931 46.4655C148.58 45.8864 148.178 45.829 147.724 46.2931C149.362 56.235 147.235 65.2579 141.345 73.3621C138.42 76.8046 134.943 79.5346 130.914 81.5517C129.53 82.1133 128.093 82.4295 126.603 82.5C126.612 81.971 126.698 81.4538 126.862 80.9483C128.712 76.7684 129.977 72.4007 130.655 67.8448C130.77 66.6953 130.77 65.546 130.655 64.3965C130.567 64.2195 130.481 64.0471 130.397 63.8793Z" fill="#875826"/>
<path fill-rule="evenodd" clip-rule="evenodd" d="M150.914 27.6724C151.434 27.644 151.951 27.6728 152.466 27.7586C153.051 28.0284 153.108 28.3733 152.638 28.7931C152.121 28.8505 151.603 28.9081 151.086 28.9655C149.664 30.2878 148.658 31.8683 148.069 33.7069C147.747 35.1659 147.345 36.6026 146.862 38.0172C146.469 37.5753 146.268 37.0581 146.259 36.4655C146.573 34.1134 147.349 31.9295 148.586 29.9138C149.23 29.0107 150.006 28.2636 150.914 27.6724Z" fill="#10401B"/>
<path fill-rule="evenodd" clip-rule="evenodd" d="M138.672 31.638C140.136 31.4073 141.429 31.7521 142.552 32.6724C142.839 33.7057 142.466 34.1367 141.431 33.9655C140.269 33.2254 139.062 33.168 137.81 33.7931C139.337 34.1285 140.716 34.7605 141.948 35.6897C142.328 36.1655 142.386 36.6828 142.121 37.2414C141.331 37.4504 140.699 37.2205 140.224 36.5517C138.434 35.6021 136.538 35.3435 134.534 35.7759C133.62 35.7528 133.247 35.293 133.414 34.3966C134.997 33.1312 136.75 32.2116 138.672 31.638Z" fill="#10401B"/>
<path fill-rule="evenodd" clip-rule="evenodd" d="M130.397 63.8793C129.937 63.9943 129.649 64.2815 129.534 64.7414C129.32 64.2615 129.435 63.8305 129.879 63.4482C130.222 63.3588 130.395 63.5024 130.397 63.8793Z" fill="#10401B"/>
<path fill-rule="evenodd" clip-rule="evenodd" d="M98.5 64.569C100.598 64.3965 102.437 65 104.017 66.3793C105.96 68.4531 107.541 70.7807 108.759 73.3621C110.185 77.5345 108.949 80.6091 105.052 82.5862C101.585 83.9864 98.6255 83.3253 96.1724 80.6034C94.3721 77.3453 93.9123 73.8971 94.7931 70.2586C95.0862 67.7115 96.3218 65.815 98.5 64.569Z" fill="#875826"/>
<path fill-rule="evenodd" clip-rule="evenodd" d="M150.741 64.569C152.676 64.2076 154.256 64.7824 155.483 66.2931C157.551 70.1973 157.953 74.2778 156.69 78.5345C155.676 81.3879 153.665 82.9397 150.655 83.1897C146.492 83.4457 143.791 81.6066 142.552 77.6724C142.344 76.1885 142.517 74.7516 143.069 73.3621C144.302 70.6924 145.94 68.3073 147.983 66.2069C148.833 65.5238 149.753 64.9778 150.741 64.569Z" fill="#875826"/>
<path fill-rule="evenodd" clip-rule="evenodd" d="M110.569 75.431C112.288 77.0343 114.07 78.586 115.914 80.0862C113.427 80.5664 110.956 81.0548 108.5 81.5517C110.064 79.819 110.754 77.7788 110.569 75.431Z" fill="#875826"/>
<path fill-rule="evenodd" clip-rule="evenodd" d="M140.914 75.431C141.151 76.7243 141.467 78.0462 141.862 79.3965C142.216 80.2093 142.704 80.9278 143.328 81.5517C140.757 81.0752 138.171 80.6155 135.569 80.1724C137.593 78.8664 139.375 77.2859 140.914 75.431Z" fill="#875826"/>
</g>
<path opacity="0.935" fill-rule="evenodd" clip-rule="evenodd" d="M67.7576 42.2576C66.6926 42.049 65.8051 42.3352 65.0954 43.1164C63.9201 45.1232 62.8324 47.1842 61.8321 49.2996C61.4308 50.1026 60.9443 50.8469 60.3721 51.5324C57.8678 49.1348 55.0625 47.1596 51.9561 45.6069C47.5818 44.0509 43.1734 43.9364 38.7309 45.2634C34.4703 47.2362 30.8063 49.9843 27.7385 53.5076C27.2805 53.6221 26.8226 53.6221 26.3645 53.5076C25.5466 52.4454 24.6878 51.4148 23.7882 50.416C22.2637 49.2107 20.5461 48.8099 18.6355 49.2137C15.6856 49.6877 12.9947 50.7755 10.563 52.4771C7.18127 54.9418 4.11836 57.7758 1.37405 60.979C0.326683 62.1916 0.040535 63.5657 0.515274 65.1012C0.936241 66.287 1.45151 67.4319 2.06107 68.5363C2.89185 69.7392 3.63624 70.9987 4.29389 72.3149C4.97851 74.8763 5.60834 77.4526 6.1832 80.0439C7.52531 85.2802 10.8745 88.1716 16.2309 88.7176C16.4889 88.8177 16.7178 88.9608 16.9179 89.147C14.6245 90.6376 13.2791 92.7559 12.8817 95.5019C12.1744 98.7598 12.3461 101.966 13.3969 105.12C15.1942 108.696 18.0855 110.27 22.0706 109.844C24.743 109.171 27.4339 108.542 30.1431 107.954C32.5079 107.293 34.9124 107.006 37.3569 107.095C41.2415 109.582 45.3636 110.097 49.7233 108.641C50.8017 108.216 51.8323 107.701 52.8149 107.095C55.2593 107.006 57.6639 107.293 60.0286 107.954C62.3516 108.42 64.6416 108.993 66.8988 109.672C71.4059 110.724 74.6979 109.207 76.7748 105.12C78.1439 100.769 77.9721 96.4756 76.2595 92.2386C75.5771 90.8977 74.5751 89.8671 73.2538 89.147C73.4539 88.9608 73.6829 88.8177 73.9408 88.7176C79.2971 88.1716 82.6464 85.2802 83.9885 80.0439C84.5634 77.4526 85.1932 74.8763 85.8779 72.3149C87.11 70.3091 88.2551 68.2481 89.313 66.1317C89.9988 64.7734 90.056 63.3994 89.4847 62.0095C86.937 58.7748 84.0458 55.8836 80.8111 53.3359C78.1587 51.2583 75.1816 49.8556 71.8798 49.1279C73.0145 46.666 72.4421 44.7481 70.1622 43.3741C69.3503 42.9815 68.5489 42.6094 67.7576 42.2576ZM66.5553 90.521C67.8784 89.5549 69.3668 89.0109 71.021 88.8893C69.9288 87.0187 69.0413 85.0435 68.3588 82.9637C68.0264 85.5524 67.4253 88.0716 66.5553 90.521ZM23.6164 90.521C22.7465 88.0716 22.1453 85.5524 21.813 82.9637C21.1304 85.0435 20.243 87.0187 19.1508 88.8893C20.8049 89.0109 22.2934 89.5549 23.6164 90.521Z" fill="#875826"/>
<path fill-rule="evenodd" clip-rule="evenodd" d="M59.5134 52.7347C59.4146 52.4064 59.2428 52.1202 58.9981 51.8759C56.7517 49.8895 54.2898 48.2006 51.6126 46.8091C48.4377 45.7377 45.1743 45.3942 41.8225 45.7786C36.6395 47.2518 32.3456 50.0572 28.9408 54.1946C27.7566 55.0753 26.5543 55.1326 25.334 54.3664C24.5399 53.2857 23.6812 52.2551 22.7576 51.2748C21.736 50.5041 20.5909 50.2179 19.3225 50.416C16.9506 50.7486 14.7178 51.4929 12.624 52.6488C8.43922 55.4594 4.80367 58.8659 1.71756 62.8683C1.56057 63.8181 1.67513 64.7341 2.06107 65.6164C3.11891 67.7328 4.26401 69.7938 5.49619 71.7996C5.72514 72.4866 5.95425 73.1736 6.1832 73.8607C6.55454 77.0352 7.41332 80.0696 8.75954 82.9637C9.81 84.8791 11.3843 86.1673 13.4828 86.8282C15.1549 87.0745 16.7579 87.4752 18.292 88.0305C20.8828 83.0611 22.1709 77.7652 22.1565 72.1431C22.2781 71.9918 22.4213 71.8774 22.5859 71.7996C22.8698 71.5765 23.1274 71.6337 23.3588 71.9713C23.4943 72.3513 23.4656 72.6948 23.2729 73.0019C21.9617 81.8964 23.7652 90.0833 28.6832 97.563C31.0318 100.753 33.8658 103.415 37.1851 105.55C39.3743 107.017 41.7789 107.847 44.3989 108.04C44.3908 107.513 44.3049 106.998 44.1412 106.494C42.2981 102.33 41.0385 97.9793 40.3626 93.4408C40.248 92.2957 40.248 91.1508 40.3626 90.0057C40.4507 89.8293 40.5366 89.6576 40.6202 89.4904C40.6221 89.115 40.7939 88.9719 41.1355 89.061C41.5783 89.4418 41.6927 89.8712 41.479 90.3492C41.6506 95.6166 42.8529 100.655 45.0859 105.464C47.1153 100.92 48.3748 96.1683 48.8645 91.208C48.6617 90.5222 48.5186 89.8351 48.4351 89.1469C48.6297 88.853 48.8874 88.7672 49.208 88.8893C49.4722 89.2211 49.6726 89.5933 49.8092 90.0057C49.8715 93.5762 49.3562 97.0685 48.2634 100.483C47.311 102.817 46.4807 105.193 45.7729 107.611C45.7442 108.04 45.9447 108.24 46.3741 108.212C47.6892 107.926 48.9774 107.554 50.2386 107.095C59.4673 102.245 64.9922 94.6596 66.813 84.3378C67.3863 80.3843 67.3576 76.4339 66.7271 72.4866C66.9238 71.5147 67.3532 71.4001 68.0153 72.1431C68.0529 76.5309 68.8545 80.7675 70.4199 84.853C70.8628 86.0704 71.4353 87.2154 72.1374 88.2881C72.7425 87.8758 73.4009 87.5609 74.1126 87.3435C77.4877 87.1321 79.9782 85.5576 81.584 82.6202C82.8394 79.8269 83.6409 76.9071 83.9886 73.8607C84.2176 73.1736 84.4466 72.4866 84.6756 71.7996C85.9077 69.7938 87.0528 67.7328 88.1107 65.6164C88.8614 64.0134 88.6324 62.582 87.4237 61.3225C84.8048 58.4742 81.9708 55.8693 78.9218 53.5076C76.6123 51.8383 74.0359 50.8364 71.1928 50.5019C70.9523 51.4517 70.6088 52.3678 70.1622 53.25C70.6684 53.3911 71.1837 53.4769 71.708 53.5076C72.0215 53.7594 72.1074 54.0743 71.9657 54.4523C71.4373 54.5877 70.8936 54.6735 70.334 54.7099C69.7964 55.0754 69.3098 55.5048 68.8741 55.9981C67.6082 58.1271 66.7494 60.4172 66.2977 62.8683C66.0114 63.7843 65.7253 63.7843 65.4389 62.8683C65.3694 62.2306 65.3694 61.6009 65.4389 60.979C61.6266 66.1064 56.617 69.4556 50.4103 71.0267C49.5325 71.1995 48.645 71.2854 47.7481 71.2843C46.7997 71.2227 45.855 71.1942 44.9141 71.1984C40.8554 74.8948 37.8496 74.1791 35.8969 69.0515C35.7139 68.0107 36.0574 67.7815 36.9275 68.3645C37.3524 70.0485 38.2971 71.3367 39.7615 72.229C40.541 72.3547 41.2853 72.2403 41.9943 71.8855C42.7959 71.313 43.5973 70.7404 44.3989 70.1679C49.6345 70.4261 54.3863 69.052 58.6546 66.0458C64.8548 61.0975 69.0056 54.7711 71.1069 47.0668C71.2214 46.7233 71.2214 46.3797 71.1069 46.0362C70.7989 45.5561 70.4267 45.1267 69.9905 44.7481C69.0164 44.1749 67.9859 43.7455 66.8989 43.4599C66.4578 43.6418 66.0856 43.928 65.7824 44.3187C64.542 46.9714 63.168 49.5477 61.6603 52.0477C58.2693 56.8634 53.6319 59.2108 47.7481 59.0897C47.5707 58.6229 47.7137 58.308 48.1775 58.145C52.784 57.9972 56.5626 56.1937 59.5134 52.7347Z" fill="#F2CB40"/>
<path fill-rule="evenodd" clip-rule="evenodd" d="M58.9981 51.876C59.2428 52.1202 59.4146 52.4065 59.5134 52.7348C59.7856 52.6485 59.8715 52.4767 59.771 52.2195C59.5425 52.0336 59.2849 51.9191 58.9981 51.876Z" fill="#875826"/>
<path fill-rule="evenodd" clip-rule="evenodd" d="M20.1813 53.4217C19.6629 53.3935 19.1477 53.4221 18.6355 53.5076C18.0526 53.7764 17.9952 54.12 18.4637 54.5381C18.979 54.5954 19.4943 54.6527 20.0095 54.7099C21.4262 56.0271 22.428 57.6016 23.0153 59.4332C23.3358 60.8866 23.7365 62.3178 24.2176 63.7271C24.6093 63.2869 24.8098 62.7716 24.8187 62.1813C24.5052 59.8382 23.7323 57.6626 22.5 55.6546C21.8583 54.755 21.0854 54.0107 20.1813 53.4217Z" fill="#875826"/>
<path fill-rule="evenodd" clip-rule="evenodd" d="M33.4065 55.9981C34.0913 55.9139 34.7211 56.0284 35.2958 56.3416C35.3106 56.1705 35.2532 56.0274 35.124 55.9122C34.5183 55.7735 33.9458 55.8021 33.4065 55.9981Z" fill="#875826"/>
<path fill-rule="evenodd" clip-rule="evenodd" d="M33.4065 55.9981C32.72 56.0252 32.1762 56.3114 31.7748 56.8569C31.6434 57.9419 31.5575 59.0297 31.5172 60.1202C31.4371 60.7492 31.5517 61.3216 31.8607 61.8378C32.3892 61.8115 32.8759 61.9261 33.3206 62.1813C33.8328 61.9001 34.3481 61.6138 34.8664 61.3225C35.2019 59.9165 35.4021 58.4852 35.4676 57.0286C35.4657 56.7632 35.4085 56.5342 35.2958 56.3416C34.7211 56.0284 34.0913 55.9139 33.4065 55.9981Z" fill="#875826"/>
<path fill-rule="evenodd" clip-rule="evenodd" d="M22.5859 71.7996C23.1848 71.9619 23.4137 72.3626 23.2729 73.0019C23.4656 72.6948 23.4943 72.3513 23.3588 71.9714C23.1274 71.6337 22.8698 71.5765 22.5859 71.7996Z" fill="#875826"/>
<path fill-rule="evenodd" clip-rule="evenodd" d="M40.6202 89.4905C41.0783 89.605 41.3645 89.8912 41.479 90.3492C41.6927 89.8712 41.5783 89.4418 41.1355 89.0611C40.7939 88.9719 40.6221 89.115 40.6202 89.4905Z" fill="#875826"/>
<path fill-rule="evenodd" clip-rule="evenodd" d="M72.395 90.1775C70.3053 90.0057 68.4732 90.6069 66.8989 91.9809C64.9632 94.0468 63.3889 96.3655 62.1756 98.937C60.7545 103.094 61.9854 106.156 65.8683 108.126C69.3215 109.521 72.27 108.862 74.7137 106.151C76.5072 102.905 76.9653 99.47 76.0878 95.8454C75.7958 93.3081 74.5649 91.4188 72.395 90.1775Z" fill="#F2CB40"/>
<path fill-rule="evenodd" clip-rule="evenodd" d="M20.3531 90.1775C18.4263 89.8175 16.8518 90.3901 15.6298 91.895C13.5692 95.7843 13.1685 99.8492 14.4275 104.09C15.4372 106.932 17.4409 108.478 20.4389 108.727C24.5863 108.982 27.2772 107.15 28.5115 103.231C28.7182 101.753 28.5465 100.321 27.9962 98.937C26.7674 96.2775 25.1358 93.9015 23.1011 91.8091C22.2537 91.1286 21.3377 90.5847 20.3531 90.1775Z" fill="#F2CB40"/>
<path fill-rule="evenodd" clip-rule="evenodd" d="M60.3721 100.998C58.6592 102.595 56.8845 104.141 55.0477 105.636C57.5249 106.114 59.9867 106.6 62.4332 107.095C60.875 105.369 60.188 103.337 60.3721 100.998Z" fill="#F2CB40"/>
<path fill-rule="evenodd" clip-rule="evenodd" d="M30.1431 100.998C29.907 102.286 29.592 103.603 29.1985 104.948C28.8462 105.758 28.3594 106.474 27.7386 107.095C30.2994 106.621 32.8758 106.163 35.4676 105.721C33.4508 104.42 31.6761 102.846 30.1431 100.998Z" fill="#F2CB40"/>
<path d="M60 10.625C51.6797 10.625 45 16.1328 45 22.8125C45 25.625 46.1133 28.2031 48.0469 30.2539C47.2266 32.5391 45.4102 34.5312 45.3516 34.5312C44.9414 34.9414 44.8828 35.5273 45.0586 36.0547C45.293 36.582 45.8203 36.875 46.4062 36.875C49.9805 36.875 52.8516 35.4102 54.5508 34.1797C56.25 34.707 58.0664 35 60 35C68.2617 35 75 29.5508 75 22.8125C75 16.1328 68.2617 10.625 60 10.625ZM60 32.1875C58.418 32.1875 56.8359 31.9531 55.3711 31.4844L54.0234 31.0742L52.9102 31.8945C52.0898 32.4805 50.918 33.125 49.5117 33.5938C49.9805 32.8906 50.3906 32.0703 50.6836 31.25L51.3281 29.6094L50.0977 28.3203C49.043 27.207 47.8125 25.332 47.8125 22.8125C47.8125 17.6562 53.2617 13.4375 60 13.4375C66.6797 13.4375 72.1875 17.6562 72.1875 22.8125C72.1875 28.0273 66.6797 32.1875 60 32.1875Z" fill="white"/>
<defs>
<clipPath id="clip0_1243_218">
<rect width="90" height="84.6552" fill="white" transform="translate(81)"/>
</clipPath>
</defs>
</svg>
