<svg width="200" height="161" fill="none" xmlns="http://www.w3.org/2000/svg"><g clip-path="url(#a)" fill-rule="evenodd" clip-rule="evenodd"><path opacity=".94" d="M49.43.57a5.95 5.95 0 0 1 5.91 1.91c2.62 4.46 5.03 9.04 7.26 13.74.89 1.79 1.97 3.44 3.24 4.96a76.07 76.07 0 0 1 18.7-13.16 46.16 46.16 0 0 1 29.4-.77 72.31 72.31 0 0 1 24.42 18.32 6.2 6.2 0 0 0 3.05 0c1.82-2.36 3.73-4.65 5.73-6.87a13.22 13.22 0 0 1 11.45-2.67 42.7 42.7 0 0 1 17.94 7.25 119.49 119.49 0 0 1 20.42 18.9 9.09 9.09 0 0 1 1.9 9.16 51.37 51.37 0 0 1-3.43 7.63 69.11 69.11 0 0 0-4.96 8.4 412.28 412.28 0 0 0-4.2 17.17c-2.98 11.64-10.43 18.06-22.33 19.28-.57.22-1.08.54-1.53.95a19.41 19.41 0 0 1 8.97 14.12 39.75 39.75 0 0 1-1.14 21.38c-4 7.94-10.42 11.44-19.28 10.5-5.93-1.5-11.91-2.9-17.94-4.2a52.1 52.1 0 0 0-16.02-1.91c-8.64 5.52-17.8 6.67-27.49 3.43a43.33 43.33 0 0 1-6.87-3.43 52.1 52.1 0 0 0-16.03 1.9 167.08 167.08 0 0 0-15.26 3.82c-10.02 2.34-17.34-1.03-21.95-10.11a41.2 41.2 0 0 1 1.14-28.63 15.83 15.83 0 0 1 6.68-6.87 4.72 4.72 0 0 0-1.52-.95c-11.9-1.22-19.35-7.64-22.33-19.28a412.3 412.3 0 0 0-4.2-17.17 179.96 179.96 0 0 1-7.63-13.74 10.55 10.55 0 0 1-.38-9.16 115.12 115.12 0 0 1 19.27-19.28 48.83 48.83 0 0 1 19.85-9.35c-2.52-5.47-1.25-9.73 3.81-12.79 1.8-.87 3.59-1.7 5.35-2.48Zm2.67 107.25a18.85 18.85 0 0 0-9.92-3.62 68.24 68.24 0 0 0 5.91-13.17 80.76 80.76 0 0 0 4 16.8Zm95.42 0a80.8 80.8 0 0 0 4-16.79 68.26 68.26 0 0 0 5.92 13.17 18.85 18.85 0 0 0-9.92 3.62Z" fill="#895B29"/><path d="M67.75 23.85c.22-.72.6-1.36 1.14-1.9 5-4.42 10.47-8.17 16.42-11.26a49.57 49.57 0 0 1 21.75-2.3 56.09 56.09 0 0 1 28.63 18.7c2.63 1.97 5.3 2.1 8.01.4 1.77-2.41 3.68-4.7 5.73-6.88a9.7 9.7 0 0 1 7.63-1.9c5.27.73 10.23 2.39 14.89 4.95a102.77 102.77 0 0 1 24.23 22.71c.35 2.11.1 4.15-.76 6.11-2.35 4.7-4.9 9.28-7.63 13.74l-1.53 4.58a65.8 65.8 0 0 1-5.73 20.23 17.56 17.56 0 0 1-10.5 8.59 54.8 54.8 0 0 0-10.68 2.67 74.86 74.86 0 0 1-8.59-35.3 2.69 2.69 0 0 0-.95-.77c-.63-.5-1.2-.37-1.72.38-.3.85-.24 1.61.2 2.3 2.9 19.76-1.1 37.95-12.03 54.57a70.89 70.89 0 0 1-18.9 17.75 32.63 32.63 0 0 1-16.02 5.54c.01-1.17.2-2.32.57-3.44 4.1-9.25 6.9-18.92 8.4-29 .25-2.55.25-5.1 0-7.64-.2-.4-.4-.77-.58-1.15 0-.83-.38-1.15-1.14-.95-.99.85-1.24 1.8-.77 2.86a85.6 85.6 0 0 1-8.01 33.6 101.67 101.67 0 0 1-8.4-31.69c.45-1.52.77-3.05.96-4.58-.44-.65-1-.84-1.72-.57a7.98 7.98 0 0 0-1.34 2.48c-.14 7.93 1.01 15.7 3.44 23.28a163.36 163.36 0 0 1 5.53 15.84c.07.96-.38 1.4-1.33 1.34a66.14 66.14 0 0 1-8.6-2.48c-20.5-10.78-32.78-27.64-36.82-50.58a86.93 86.93 0 0 1 .19-26.33c-.44-2.16-1.4-2.42-2.87-.77a80.24 80.24 0 0 1-5.34 28.25 36.98 36.98 0 0 1-3.82 7.63 16.1 16.1 0 0 0-4.38-2.1c-7.5-.47-13.04-3.97-16.6-10.5a65.25 65.25 0 0 1-5.35-19.46l-1.53-4.58A179.95 179.95 0 0 1 4.2 52.48c-1.67-3.56-1.16-6.74 1.53-9.54a152.4 152.4 0 0 1 18.89-17.37 36.04 36.04 0 0 1 17.17-6.68c.54 2.11 1.3 4.15 2.3 6.11-1.13.31-2.28.5-3.44.57-.7.56-.89 1.26-.57 2.1 1.17.3 2.38.5 3.62.57 1.2.82 2.28 1.77 3.25 2.87a45.93 45.93 0 0 1 5.72 15.26c.64 2.04 1.27 2.04 1.91 0 .15-1.41.15-2.81 0-4.2a58.25 58.25 0 0 0 33.4 22.33c1.95.39 3.92.58 5.91.58 2.11-.14 4.21-.2 6.3-.2 9.02 8.22 15.7 6.63 20.04-4.77.4-2.3-.36-2.82-2.3-1.52a13.57 13.57 0 0 1-6.29 8.59 7.99 7.99 0 0 1-4.96-.77l-5.34-3.81a49.33 49.33 0 0 1-31.68-9.16c-13.78-11-23-25.06-27.68-42.18a3.53 3.53 0 0 1 0-2.3 13.24 13.24 0 0 1 2.49-2.85 27.03 27.03 0 0 1 6.87-2.87 6 6 0 0 1 2.48 1.91c2.75 5.9 5.8 11.62 9.16 17.18 7.53 10.7 17.84 15.92 30.91 15.65.4-1.04.08-1.74-.95-2.1-10.24-.33-18.63-4.34-25.2-12.03Z" fill="#BEB684"/><path d="M68.9 21.95a4.48 4.48 0 0 0-1.15 1.9c-.6-.19-.8-.57-.57-1.14a3.5 3.5 0 0 1 1.71-.76Z" fill="#A08351"/><path d="M155.15 25.38c1.16-.06 2.3 0 3.44.2 1.3.59 1.42 1.35.38 2.28l-3.44.38a24.2 24.2 0 0 0-6.68 10.5 88.48 88.48 0 0 1-2.67 9.54 5.13 5.13 0 0 1-1.33-3.43c.7-5.2 2.41-10.04 5.15-14.5 1.43-2 3.14-3.66 5.15-4.97Z" fill="#8A5E2C"/><path d="M125.76 31.1a6.82 6.82 0 0 0-4.2.77c-.03-.38.1-.7.39-.95a6.63 6.63 0 0 1 3.81.19Z" fill="#9B7947"/><path d="M125.76 31.1a4.5 4.5 0 0 1 3.63 1.92c.3 2.4.48 4.82.57 7.25a5.8 5.8 0 0 1-.76 3.81 5.8 5.8 0 0 0-3.25.77l-3.43-1.91a50.94 50.94 0 0 1-1.34-9.54c0-.6.13-1.1.38-1.53a6.82 6.82 0 0 1 4.2-.76Z" fill="#885A28"/><path d="M149.8 66.22c-1.32.36-1.83 1.25-1.52 2.67a2.51 2.51 0 0 1-.19-2.29c.52-.75 1.09-.87 1.72-.38Z" fill="#9F814F"/><path d="M109.73 105.53c-1.02.26-1.65.9-1.9 1.91-.48-1.06-.23-2.01.76-2.86.76-.2 1.14.12 1.14.95Z" fill="#A18351"/><path d="M39.12 107.06c4.65-.38 8.72.95 12.22 4 4.3 4.6 7.8 9.75 10.5 15.47 3.15 9.23.41 16.04-8.21 20.42-7.68 3.1-14.23 1.63-19.66-4.4a30.8 30.8 0 0 1-3.05-22.9c.64-5.63 3.38-9.83 8.2-12.59ZM154.77 107.06c4.28-.8 7.78.47 10.5 3.82a34.71 34.71 0 0 1 2.67 27.1c-2.25 6.31-6.7 9.75-13.36 10.3-9.22.57-15.2-3.5-17.94-12.21a18.48 18.48 0 0 1 1.15-9.54 56.64 56.64 0 0 1 10.87-15.84 24.94 24.94 0 0 1 6.11-3.63Z" fill="#BEB684"/><path d="M65.84 131.1c3.8 3.56 7.75 7 11.83 10.31-5.5 1.06-10.97 2.15-16.41 3.25a17.39 17.39 0 0 0 4.58-13.55Z" fill="#BDB583"/><path d="M133.01 131.1a87.4 87.4 0 0 0 2.1 8.79c.79 1.8 1.87 3.39 3.25 4.77a1194.4 1194.4 0 0 0-17.18-3.06 51.68 51.68 0 0 0 11.83-10.5Z" fill="#BDB381"/></g><g clip-path="url(#b)" fill-rule="evenodd" clip-rule="evenodd"><path opacity=".86" d="M93.88 78.77h2.75a5.03 5.03 0 0 1 0 5.5A5 5 0 0 0 98 86.31c13.64.99 23.48 7.62 29.51 19.9a52.89 52.89 0 0 1 1.37 34.32c-4.63 10.14-12.49 16.16-23.56 18.07-20.64 2.07-33.68-6.85-39.12-26.77-3.66-15.8.53-28.99 12.58-39.57a39.96 39.96 0 0 1 12.81-5.72c-.34-1.56-.8-3.08-1.37-4.58a9.23 9.23 0 0 1 3.66-3.2Z" fill="#8B5D28"/><path d="M95.25 80.6a9.41 9.41 0 0 0 0 5.03c.76 1.22 1.52 2.44 2.3 3.66a42.02 42.02 0 0 0-4.58 1.83l-.46-.91a8.88 8.88 0 0 0 0-7.78 2.97 2.97 0 0 1 2.74-1.83Z" fill="#9FC55A"/><path d="M95.25 80.6c.29 1.6.29 3.27 0 5.03a9.41 9.41 0 0 1 0-5.03Z" fill="#8F7D38"/><path d="M98.92 89.75a27.2 27.2 0 0 1 16 5.26c8.03 6.37 12.38 14.68 13.05 24.94 1.73 26.02-10.4 37.84-36.38 35.45-10.08-2.64-17.02-8.81-20.81-18.52a47.44 47.44 0 0 1-.46-28.83c3.76-9.48 10.54-15.42 20.36-17.84-.35 1.71.34 2.47 2.06 2.29 1.64-.2 3.24-.59 4.8-1.15.88-.19 1.34-.72 1.38-1.6Z" fill="#F1CA3F"/></g><defs><clipPath id="a"><path fill="#fff" d="M0 0h200v151.91H0z"/></clipPath><clipPath id="b"><path fill="#fff" transform="translate(63 79)" d="M0 0h70v81.9H0z"/></clipPath></defs></svg>