<svg width="150" height="119" fill="none" xmlns="http://www.w3.org/2000/svg"><path opacity=".94" fill-rule="evenodd" clip-rule="evenodd" d="M37.07.43a4.46 4.46 0 0 1 4.44 1.43c1.96 3.35 3.77 6.78 5.44 10.3a19.13 19.13 0 0 0 2.43 3.73c4.17-4 8.85-7.3 14.03-9.88a34.62 34.62 0 0 1 22.04-.57 54.23 54.23 0 0 1 18.32 13.74c.76.19 1.53.19 2.29 0a87.15 87.15 0 0 1 4.3-5.15c2.53-2.01 5.4-2.68 8.58-2 4.92.78 9.4 2.6 13.46 5.43a89.62 89.62 0 0 1 15.31 14.17 6.82 6.82 0 0 1 1.43 6.87 38.37 38.37 0 0 1-2.57 5.73c-1.39 2-2.63 4.1-3.73 6.3a309.2 309.2 0 0 0-3.15 12.88c-2.23 8.72-7.81 13.54-16.74 14.45-.43.17-.81.4-1.15.72a14.56 14.56 0 0 1 6.73 10.59c1.18 5.43.9 10.77-.86 16.03-3 5.96-7.81 8.58-14.45 7.87a689.37 689.37 0 0 0-16.46-3.86 21.38 21.38 0 0 1-13.32 7.87 42.28 42.28 0 0 1-20.03-1.14c-3.61-1.41-6.66-3.6-9.16-6.59-4.87.6-9.64 1.65-14.32 3.15-11.04 2.47-17.48-1.87-19.32-13.02-.5-5.44.27-10.69 2.3-15.75a11.87 11.87 0 0 1 5-5.15 3.55 3.55 0 0 0-1.14-.72c-8.93-.9-14.51-5.73-16.75-14.45-.96-4.32-2-8.62-3.15-12.89a134.96 134.96 0 0 1-5.72-10.3 7.91 7.91 0 0 1-.3-6.87 86.34 86.34 0 0 1 14.46-14.46 36.62 36.62 0 0 1 14.89-7.01c-1.9-4.1-.94-7.3 2.86-9.59 1.36-.65 2.7-1.27 4.01-1.86Zm2 80.44a14.13 14.13 0 0 0-7.44-2.72 51.18 51.18 0 0 0 4.44-9.88 60.57 60.57 0 0 0 3 12.6Zm71.57 0a60.57 60.57 0 0 0 3-12.6 51.22 51.22 0 0 0 4.44 9.88c-2.75.2-5.24 1.1-7.44 2.72Z" fill="#895B29"/><path fill-rule="evenodd" clip-rule="evenodd" d="m49.67 87.17-.58 7.44c-9.68-13.37-13.17-28.26-10.44-44.66-.76-.77-1.43-.67-2 .29a56.9 56.9 0 0 1-6.3 26.33l-.58.58c-1-.69-2.1-1.22-3.3-1.58-5.33-.35-9.39-2.78-12.16-7.3a49.33 49.33 0 0 1-4.3-15.17 29.16 29.16 0 0 0-4.86-9.73 38.47 38.47 0 0 1-2.57-5.73c-.2-.95-.2-1.9 0-2.86a70.93 70.93 0 0 1 7.01-8.16A67.04 67.04 0 0 1 22.76 16.6a47.27 47.27 0 0 1 8.59-2.43c.4 1.58.97 3.11 1.71 4.58-.84.24-1.7.38-2.57.43-.53.42-.67.94-.43 1.57.88.23 1.78.37 2.72.43.9.61 1.7 1.33 2.43 2.15a34.4 34.4 0 0 1 4.3 11.45c.47 1.53.95 1.53 1.43 0 .11-1.06.11-2.11 0-3.15a43.69 43.69 0 0 0 25.04 16.75c1.47.29 2.94.43 4.44.43 1.58-.1 3.16-.15 4.72-.15 6.77 6.16 11.78 4.97 15.03-3.57.3-1.74-.27-2.12-1.72-1.15-.7 2.8-2.28 4.95-4.72 6.44-1.3.21-2.54.02-3.72-.57l-4-2.86a37 37 0 0 1-23.77-6.87 58.88 58.88 0 0 1-20.9-32.5 4.63 4.63 0 0 1 2-3 11.9 11.9 0 0 1 5.73-2l1.3 1.28c2.06 4.43 4.35 8.72 6.86 12.89 5.6 7.93 13.29 11.89 23.05 11.88.38-.48.38-.96 0-1.44a51.35 51.35 0 0 1-12.6-3.43 42.3 42.3 0 0 1-6.73-5.58.72.72 0 0 1 0-.86 47.8 47.8 0 0 1 14.46-9.88A43.35 43.35 0 0 1 80.3 6.3a42.06 42.06 0 0 1 21.47 14.02c1.97 1.47 3.97 1.57 6 .3a54.82 54.82 0 0 1 4.3-5.16 8.86 8.86 0 0 1 8.59-.86c3.98.85 7.6 2.47 10.88 4.87a84.68 84.68 0 0 1 15.6 15.31 7.96 7.96 0 0 1-.57 4.58 135.1 135.1 0 0 1-5.73 10.3 66.33 66.33 0 0 0-2.58 10.88 26.77 26.77 0 0 1-5.86 11.6 19.88 19.88 0 0 1-10.31 3.72l-2 1c-.27-.03-.51-.13-.72-.29a56.9 56.9 0 0 1-6.3-26.33c-.58-.96-1.25-1.06-2-.29 2.63 15.8-.52 30.3-9.45 43.51A31.9 31.9 0 0 0 97.32 74a22.89 22.89 0 0 0-16.17-9.02 83.4 83.4 0 0 0-13.16.29c-11.53 2.7-17.64 10-18.32 21.9Z" fill="#BEB684"/><path fill-rule="evenodd" clip-rule="evenodd" d="M116.36 19.04c.87-.05 1.73 0 2.58.14.97.45 1.07 1.02.29 1.72l-2.58.28a18.15 18.15 0 0 0-5 7.88c-.54 2.42-1.21 4.8-2.01 7.15a3.85 3.85 0 0 1-1-2.57c.52-3.91 1.8-7.54 3.86-10.88a14.3 14.3 0 0 1 3.86-3.72Z" fill="#8A5E2C"/><path fill-rule="evenodd" clip-rule="evenodd" d="M91.46 23.04a7.35 7.35 0 0 1 5.44 1.44c.5 2.64.64 5.32.43 8.01l-.43.43c-.87.1-1.68.33-2.43.72l-2.58-1.44c-.56-2.34-.9-4.72-1-7.15a3.4 3.4 0 0 1 .57-2Z" fill="#885A28"/><path fill-rule="evenodd" clip-rule="evenodd" d="M72 66.56c20.57-.84 29.69 8.99 27.33 29.48-1.43 12.48-8.44 19.02-21.04 19.6-6.28.7-12.2-.45-17.75-3.43a19 19 0 0 1-8.15-12.45 39.94 39.94 0 0 1 .28-18.9c1.91-6.29 5.97-10.54 12.17-12.73a56.21 56.21 0 0 1 7.15-1.57Z" fill="#FEFEFD"/><path fill-rule="evenodd" clip-rule="evenodd" d="M64.27 78.3h20.6v6.58c-.69.08-1.36-.01-2-.29-.4-1.39-.79-2.77-1.14-4.15-3.34-.14-6.68-.2-10.02-.14V90.3c2.1.05 4.2 0 6.3-.14a13 13 0 0 0 1-3.29 2.6 2.6 0 0 1 1.57-.29v9.45h-1.43c-.23-1.25-.6-2.44-1.14-3.58-2.1-.14-4.2-.19-6.3-.14v10.88c3.82.04 7.63 0 11.45-.15.52-1.63.9-3.3 1.14-5h2v7.15H64.28v-1.43c1.13-.14 2.23-.43 3.29-.86.19-7.44.19-14.89 0-22.33a12.85 12.85 0 0 0-3.3-.86V78.3Z" fill="#174420"/><path fill-rule="evenodd" clip-rule="evenodd" d="M29.34 80.3c3.48-.29 6.54.71 9.16 3a44.82 44.82 0 0 1 7.87 11.6c2.37 6.92.32 12.03-6.15 15.31-5.76 2.33-10.67 1.23-14.74-3.3a23.1 23.1 0 0 1-2.3-17.17 11.86 11.86 0 0 1 6.16-9.44ZM116.08 80.3c3.21-.6 5.83.35 7.87 2.86a26.03 26.03 0 0 1 2 20.32c-1.68 4.74-5.02 7.32-10.02 7.73-6.9.43-11.4-2.63-13.45-9.16-.34-2.46-.06-4.85.86-7.16a42.47 42.47 0 0 1 8.16-11.87 18.71 18.71 0 0 1 4.58-2.72Z" fill="#BEB684"/><path fill-rule="evenodd" clip-rule="evenodd" d="M49.67 87.17c.04 2.67 0 5.34-.15 8.01-.2-.15-.35-.35-.43-.57l.58-7.44Z" fill="#9F804E"/><path fill-rule="evenodd" clip-rule="evenodd" d="M49.38 98.33c.36.02.6.21.72.57.6 2.87 1.6 5.59 3 8.16-2.4.53-4.78 1-7.16 1.43a13.04 13.04 0 0 0 3.44-10.16Z" fill="#BDB381"/><path fill-rule="evenodd" clip-rule="evenodd" d="M100.33 101.48c.41 2.67 1.56 5.01 3.44 7.01-1.91-.23-3.82-.57-5.73-1a83 83 0 0 0 2.3-6.01Z" fill="#BBB07E"/></svg>