<svg width="300" height="283" fill="none" xmlns="http://www.w3.org/2000/svg"><g clip-path="url(#a)" fill-rule="evenodd" clip-rule="evenodd"><path opacity=".89" d="M139.37-.29h4.6a16.28 16.28 0 0 1 7.75 7.47 122.8 122.8 0 0 1 8.05 43.1c-2.2 4.2-5.36 5.05-9.48 2.6a31.12 31.12 0 0 1-4.31-5.47 779 779 0 0 1-14.37-30.46c-3.59-8.74-1-14.5 7.76-17.24Z" fill="#885928"/><path opacity=".88" d="M195.69.86a24.64 24.64 0 0 1 18.68 8.62c.75 1.67.95 3.4.57 5.18a270.1 270.1 0 0 1-26.72 38.79c-5.38 1.72-8.63-.2-9.77-5.75a206.62 206.62 0 0 1 14.08-43.96c1-1.1 2.05-2.06 3.16-2.88Z" fill="#885928"/><path d="M139.94 3.74a6.48 6.48 0 0 1 6.61 2.87 38.55 38.55 0 0 1 4.6 10.92 97.47 97.47 0 0 1 4.31 32.18c-1.87.76-3.3.18-4.31-1.72a274.73 274.73 0 0 1-16.1-33.91c-2.2-5.37-.56-8.82 4.9-10.34ZM196.84 4.89a19.4 19.4 0 0 1 14.37 7.75 302.43 302.43 0 0 1-22.7 34.77 12.28 12.28 0 0 1-3.45 2.88 3.92 3.92 0 0 1-2.59-2.88 237.99 237.99 0 0 1 12.36-39.65c.57-1.05 1.24-2 2-2.87Z" fill="#fff"/><path opacity=".89" d="M243.4 30.17c7.26-.1 11.47 3.44 12.64 10.63.1 1.8-.39 3.43-1.44 4.89l-5.46 5.46a645.53 645.53 0 0 1-32.19 17.24 13.52 13.52 0 0 1-10.34.58c-2.97-3.04-3.06-6.2-.29-9.49 9-9.38 18.67-17.9 29.03-25.57a74.82 74.82 0 0 1 8.04-3.74Z" fill="#885A28"/><path d="M243.4 34.2c3.88-.5 6.66 1.03 8.32 4.6a5.9 5.9 0 0 1-.57 4.6l-4.31 4.3a431.2 431.2 0 0 1-33.9 17.82c-1.5.44-2.94.34-4.32-.29-.3-1.03-.1-1.99.57-2.87 7.25-7.82 15-15 23.28-21.56a80.77 80.77 0 0 1 10.92-6.6Z" fill="#fff"/><path opacity=".94" d="M299.71 124.42v4.6a72.5 72.5 0 0 1-6.03 13.8 104 104 0 0 0-7.47 12.64c-2.3 8.57-4.4 17.2-6.32 25.86-4.5 17.52-15.7 27.2-33.63 29.03-.86.33-1.63.8-2.3 1.43a26.1 26.1 0 0 1 12.36 16.67 68.24 68.24 0 0 1 1.73 28.73c-4.4 18.92-16.2 26.68-35.35 23.28a282.54 282.54 0 0 0-42.53-8.9l-4.6.28c-14.09 8.93-28.84 10.27-44.25 4.02a69.76 69.76 0 0 1-7.47-4.02c-8.18-.3-16.22.66-24.14 2.87a844.73 844.73 0 0 0-27 6.32c-13.34 1.43-23.02-3.84-29.03-15.8a62.05 62.05 0 0 1 1.72-43.1 23.84 23.84 0 0 1 10.06-10.35 7.13 7.13 0 0 0-2.3-1.44c-17.92-1.82-29.13-11.5-33.62-29.02a620.56 620.56 0 0 0-6.32-25.86c-2.2-4.4-4.7-8.62-7.47-12.64a72.55 72.55 0 0 1-6.04-13.8v-4.6a39.8 39.8 0 0 1 7.19-10.91c7.24-7.82 15-15 23.27-21.56a73.52 73.52 0 0 1 29.89-14.08c-4.08-10.14-1.01-17.13 9.2-20.97a15.46 15.46 0 0 1 10.34-1.73c1.22.65 2.27 1.5 3.16 2.59a265.52 265.52 0 0 1 10.92 20.69 38.43 38.43 0 0 0 4.88 7.47 114.55 114.55 0 0 1 28.16-19.83 70.36 70.36 0 0 1 42.53-1.72 104.93 104.93 0 0 1 38.5 28.16c1.54.38 3.07.38 4.6 0 2.74-3.56 5.62-7 8.63-10.35a19.9 19.9 0 0 1 17.24-4.02 62.43 62.43 0 0 1 23.56 8.62 154.63 154.63 0 0 1 36.5 34.2c.48 1.21.96 2.36 1.43 3.44ZM77.87 216.38a28.37 28.37 0 0 0-14.94-5.46 102.78 102.78 0 0 0 8.9-19.83 121.6 121.6 0 0 0 6.04 25.29Zm143.68 0a121.6 121.6 0 0 0 6.04-25.29 102.82 102.82 0 0 0 8.9 19.83 28.37 28.37 0 0 0-14.94 5.46Z" fill="#895B29"/><path d="M164.66 212.93c-.01-1.25-.59-1.73-1.73-1.44-1.48 1.28-1.86 2.72-1.15 4.31a128.9 128.9 0 0 1-12.07 50.58c-6.79-15.2-11-31.1-12.64-47.7.68-2.3 1.16-4.6 1.44-6.9-.66-.98-1.52-1.27-2.59-.86a12 12 0 0 0-2.01 3.74 108.07 108.07 0 0 0 5.17 35.05c3.19 7.81 5.96 15.76 8.33 23.85.1 1.44-.57 2.11-2 2.01-4.4-.95-8.72-2.2-12.94-3.73-30.88-16.23-49.37-41.61-55.46-76.15a130.9 130.9 0 0 1 .29-39.66c-.66-3.25-2.1-3.63-4.31-1.15a120.82 120.82 0 0 1-8.05 42.53 55.7 55.7 0 0 1-5.74 11.5 24.25 24.25 0 0 0-6.61-3.16c-11.3-.71-19.63-5.98-25-15.8a98.25 98.25 0 0 1-8.05-29.32l-2.3-6.9a270.98 270.98 0 0 1-11.5-20.68c-2.5-5.37-1.74-10.16 2.3-14.37A229.51 229.51 0 0 1 36.5 92.53a54.26 54.26 0 0 1 25.87-10.06c.8 3.18 1.95 6.24 3.44 9.2-1.69.47-3.41.76-5.17.86-1.05.84-1.33 1.9-.86 3.16 1.77.45 3.59.74 5.46.86a26.01 26.01 0 0 1 4.88 4.31 69.05 69.05 0 0 1 8.63 23c.95 3.06 1.91 3.06 2.87 0 .23-2.14.23-4.25 0-6.33 12.76 17.16 29.52 28.36 50.29 33.62 2.93.58 5.9.86 8.9.86 3.18-.2 6.34-.3 9.49-.29 13.58 12.37 23.64 9.98 30.17-7.18.61-3.48-.54-4.25-3.45-2.3a20.42 20.42 0 0 1-9.48 12.93c-2.61.42-5.1.04-7.47-1.15l-8.05-5.74c-17.52.86-33.42-3.74-47.7-13.8-21.27-16.95-35.26-38.69-41.95-65.23a9.3 9.3 0 0 1 4.02-6.03 23.91 23.91 0 0 1 11.5-4.02l2.58 2.58c4.15 8.88 8.75 17.5 13.8 25.86 11.24 15.93 26.66 23.88 46.26 23.85.76-.95.76-1.91 0-2.87a103.1 103.1 0 0 1-25.29-6.9 84.9 84.9 0 0 1-13.5-11.2 1.44 1.44 0 0 1 0-1.73c8.44-8.39 18.12-15 29.02-19.82a87.04 87.04 0 0 1 29.88-2.3 84.46 84.46 0 0 1 43.1 28.16 11.99 11.99 0 0 0 12.08.57c2.65-3.61 5.53-7.06 8.62-10.34 5.4-3.56 11.14-4.14 17.24-1.73 8 1.7 15.28 4.96 21.84 9.77a170.03 170.03 0 0 1 31.32 30.75c.52 3.18.14 6.24-1.15 9.2a271.02 271.02 0 0 1-11.5 20.69 133.13 133.13 0 0 0-5.17 21.83 53.75 53.75 0 0 1-11.78 23.28 39.9 39.9 0 0 1-20.69 7.47l-4.02 2.01a2.84 2.84 0 0 1-1.44-.57 114.23 114.23 0 0 1-12.64-52.88c-1.17-1.92-2.51-2.12-4.03-.57 5.46 33.14-1.63 63.22-21.26 90.23a109.45 109.45 0 0 1-34.77 27.3A43.4 43.4 0 0 1 152 275c.03-1.76.32-3.49.86-5.17a168.85 168.85 0 0 0 12.65-43.68c.38-3.83.38-7.66 0-11.5l-.87-1.72Z" fill="#BEB684"/><path d="M233.05 92.24c1.73-.1 3.45 0 5.17.29 1.95.9 2.14 2.05.57 3.45l-5.17.57a36.43 36.43 0 0 0-10.06 15.8 133.03 133.03 0 0 1-4.02 14.37 7.72 7.72 0 0 1-2.01-5.17 55.33 55.33 0 0 1 7.76-21.84 28.73 28.73 0 0 1 7.76-7.47Z" fill="#8A5E2C"/><path d="M192.24 105.46c4.88-.77 9.19.38 12.93 3.45.96 3.44-.28 4.88-3.73 4.3-3.88-2.46-7.9-2.65-12.07-.57a35.16 35.16 0 0 1 13.8 6.33 4.58 4.58 0 0 1 .57 5.17 5.44 5.44 0 0 1-6.33-2.3 27.08 27.08 0 0 0-18.96-2.59c-3.05-.07-4.3-1.6-3.74-4.6a51.33 51.33 0 0 1 17.53-9.19Z" fill="#895C2A"/><path d="M164.66 212.93a3.69 3.69 0 0 0-2.88 2.88c-.71-1.6-.33-3.04 1.15-4.32 1.14-.3 1.72.19 1.72 1.44Z" fill="#A18351"/><path d="M58.33 215.23c7-.57 13.13 1.44 18.4 6.03a90 90 0 0 1 15.8 23.28c4.75 13.9.63 24.16-12.36 30.75-11.55 4.66-21.42 2.46-29.6-6.61-6-10.86-7.53-22.36-4.6-34.49.98-8.48 5.1-14.8 12.36-18.96ZM232.47 215.23c6.45-1.2 11.72.71 15.8 5.75 6.9 13.01 8.24 26.61 4.03 40.8-3.38 9.51-10.08 14.69-20.12 15.52-13.87.85-22.88-5.28-27-18.4-.7-4.94-.13-9.73 1.72-14.36a85.23 85.23 0 0 1 16.38-23.85c2.83-2.28 5.9-4.1 9.2-5.46Z" fill="#BEB684"/><path d="M98.56 251.44a350.7 350.7 0 0 0 17.82 15.51c-8.29 1.6-16.53 3.23-24.71 4.89a26.18 26.18 0 0 0 6.9-20.4Z" fill="#BDB583"/><path d="M199.71 251.44a131.5 131.5 0 0 0 3.16 13.21c1.18 2.71 2.81 5.1 4.89 7.19a1806.5 1806.5 0 0 0-25.86-4.6 77.86 77.86 0 0 0 17.81-15.8Z" fill="#BDB381"/></g><defs><clipPath id="a"><path fill="#fff" d="M0 0h300v282.18H0z"/></clipPath></defs></svg>