<svg width="120" height="114" fill="none" xmlns="http://www.w3.org/2000/svg"><g clip-path="url(#a)" fill-rule="evenodd" clip-rule="evenodd"><path opacity=".88" d="M64.3.35c4.8.08 6.48 2.4 5 6.98a315.02 315.02 0 0 1-5.81 12.32 5.6 5.6 0 0 1-2.68 2.68c-2.31.19-3.32-.9-3.02-3.26a56.8 56.8 0 0 1 3.37-15.7A6.59 6.59 0 0 1 64.3.35Z" fill="#8A5C2B"/><path opacity=".88" d="M41.51.81c1.3-.25 2.34.14 3.14 1.17a83.62 83.62 0 0 1 5.7 17.79c-.46 2.24-1.78 3.02-3.95 2.32A109.27 109.27 0 0 1 35.58 6.4a3.04 3.04 0 0 1 1.51-3.37c1.37-.99 2.84-1.73 4.42-2.2Z" fill="#895B2B"/><path d="M64.3 1.98a4.95 4.95 0 0 1 3.84 1.4 8.46 8.46 0 0 1-.93 4.64c-1.76 4.06-3.7 8.01-5.81 11.86-1.55 1.46-2.21 1.12-1.98-1.04a44.89 44.89 0 0 1 3.6-15.47c.48-.43.9-.9 1.28-1.4ZM41.74 2.44c.74-.12 1.32.1 1.75.7a93.92 93.92 0 0 1 5.11 15.81c.33 1.2-.1 1.77-1.27 1.75A101.6 101.6 0 0 1 37.2 5.93c.02-.73.37-1.31 1.05-1.74a13.3 13.3 0 0 1 3.48-1.75Z" fill="#fff"/><path opacity=".88" d="M22.2 12.67a8.1 8.1 0 0 1 5.13 1.52c4.19 3.1 8.1 6.55 11.74 10.34 1.51 2.32.93 3.72-1.74 4.2a6.7 6.7 0 0 1-2.56-.59c-4.42-2.2-8.76-4.53-13.03-6.98-3.83-3.1-3.68-5.93.47-8.49Z" fill="#8A5B2B"/><path d="M22.2 14.3a6.35 6.35 0 0 1 3.03.58 72.68 72.68 0 0 1 12.9 11.05c.29.93-.06 1.31-1.04 1.16a4.81 4.81 0 0 1-1.62-.35c-4.25-2.15-8.44-4.4-12.56-6.74l-1.98-1.98a2.11 2.11 0 0 1 0-2.32c.47-.44.9-.9 1.28-1.4Z" fill="#fff"/><path opacity=".93" d="M38.49 35.23c-.02.1.02.18.11.24.32-.36.67-.67 1.05-.94-.1-.18-.26-.26-.46-.23 7.76-8.55 17.3-11.46 28.6-8.72a42.57 42.57 0 0 1 15.58 11.4c.8.16 1.57.08 2.33-.24a17.18 17.18 0 0 1 13.72-6.97c4.52-.27 9.02-.04 13.49.7 2.7.69 4.53 2.35 5.46 5 .5 1.27.8 2.59.93 3.95.3 4.94-.1 9.82-1.16 14.65a69.9 69.9 0 0 0-5.12 17.44 18.88 18.88 0 0 1-5.93 10.35 15.77 15.77 0 0 1-7.9 2.8c-.43.17-.82.4-1.17.69a8.64 8.64 0 0 1 4.07 4.07 25.11 25.11 0 0 1 .7 17.44c-2.81 5.53-7.27 7.59-13.37 6.16a114.38 114.38 0 0 0-17.21-3.6l-1.86.11a20.32 20.32 0 0 1-14.19 2.8 20.24 20.24 0 0 1-6.74-2.8c-3.31-.12-6.57.27-9.77 1.17-3.14.63-6.24 1.4-9.3 2.32-5.39 1.39-9.61-.2-12.68-4.76a19.8 19.8 0 0 1-1.86-11.4 18.5 18.5 0 0 1 3.26-9.53c.86-.75 1.75-1.44 2.67-2.1a2.88 2.88 0 0 0-.93-.58c-5.92-.42-10.06-3.32-12.44-8.72a82.47 82.47 0 0 1-1.63-4.65c-.76-3.59-1.61-7.15-2.55-10.7-1.08-2.7-2.09-5.4-3.03-8.14A49.91 49.91 0 0 1 .93 36.4c1.55-4.41 4.69-6.55 9.42-6.4 4.35-.53 8.7-.45 13.02.23 3.08.48 5.8 1.72 8.14 3.72l3.26 3.26c.57.16 1.11.09 1.63-.23l2.09-1.75ZM91.28 76.4c.93 2.79 2.1 5.5 3.49 8.13a16.3 16.3 0 0 0-5.58 2.56l-.24-.11a49.72 49.72 0 0 0 2.33-10.58ZM30.8 87.1c-1.79-1.32-3.8-2.05-6.04-2.22a41.57 41.57 0 0 0 3.6-8.02 49.2 49.2 0 0 0 2.44 10.23Z" fill="#885B29"/><path d="M35 39.19c.77.1 1.4-.12 1.86-.7l1.16-.58a37.05 37.05 0 0 1 12.8-10 27.15 27.15 0 0 1 5.34-1.4c2.72-.15 5.43-.15 8.14 0 7 1.99 12.82 5.79 17.44 11.4 1.58 1.24 3.2 1.32 4.89.23 4-4.97 9.24-7.25 15.7-6.86 3.3.09 6.6.36 9.88.81 3.07.91 4.82 2.96 5.23 6.17.43 4.83.2 9.63-.7 14.41a77.49 77.49 0 0 0-5.58 18.84 17.9 17.9 0 0 1-4.77 8.72 13 13 0 0 1-7.2 2.56c-.92.3-1.77.73-2.56 1.28a14.28 14.28 0 0 1-1.98-3.72c-.9-2.62-1.75-5.26-2.56-7.9-.47-3.4-.86-6.82-1.16-10.24-.45-.81-1-.89-1.63-.23.47 3.77.7 7.57.7 11.4a66.78 66.78 0 0 1-2.56 12.78c-.39 1.1-.9 2.1-1.51 3.03a42.51 42.51 0 0 1-11.28-8.84 25.4 25.4 0 0 1-5.12-11.4c-.4-.49-.86-.56-1.4-.23a24.6 24.6 0 0 0 5.6 13.02c1.51 1.6 3.1 3.11 4.76 4.54l8.49 5.7c.06.84-.3 1.5-1.05 1.97a10.44 10.44 0 0 1-9.07 2.1 36.76 36.76 0 0 1-21.74-17.33 72.88 72.88 0 0 1-3.6-8.49c-1.07-.21-1.42.21-1.05 1.28a38.17 38.17 0 0 0 8.37 15.12c1.94 1.75 3.84 3.53 5.7 5.35a71.38 71.38 0 0 1-4.66 15.35 61.95 61.95 0 0 1-5.11-19.3c.27-.94.47-1.87.58-2.8-.26-.4-.61-.51-1.05-.35-.36.45-.63.96-.81 1.52-.19 4.85.51 9.58 2.1 14.18 1.14 3 2.23 6.03 3.25 9.07.3.78.07 1.25-.7 1.4a40.4 40.4 0 0 1-5.23-1.52c-12.5-6.56-19.98-16.83-22.44-30.8a34.6 34.6 0 0 1-.59-7.1c.14-3.3.3-6.6.47-9.89-.6-.09-1.1.07-1.51.47a46.22 46.22 0 0 1-5.12 21.4l-.46.46a9.8 9.8 0 0 0-2.68-1.28 11.9 11.9 0 0 1-9.88-5.93c-.6-1.3-1.15-2.6-1.63-3.95-1.05-4.1-2.06-8.2-3.02-12.33a95.8 95.8 0 0 0-2.8-6.98 44.39 44.39 0 0 1-.92-15.8 7.13 7.13 0 0 1 3.6-5.24c7.02-1.83 14-1.68 20.93.46a26.85 26.85 0 0 1 7.21 6.05c.3.11.61.15.93.12Z" fill="#BEB684"/><path d="M19.65 33.6c5.47 1.01 9.23 4.11 11.28 9.3a16.18 16.18 0 0 1 1.4 6.98l-.59.7a4.03 4.03 0 0 1-.81-1.63 17.24 17.24 0 0 0-6.86-12.2 18.94 18.94 0 0 0-4.65-1.63c-.32-.57-.24-1.07.23-1.52Z" fill="#8A5D2B"/><path d="M99.19 33.6c1.12-.02 1.43.48.93 1.52-3.88.7-6.79 2.75-8.72 6.16L90 44.07a72.7 72.7 0 0 1-1.98 6.74 2.77 2.77 0 0 1-.93-1.74 19.98 19.98 0 0 1 6.98-13.26c1.59-1.06 3.3-1.8 5.12-2.2Z" fill="#8A5E2C"/><path opacity=".81" d="M39.19 34.3c.2-.03.35.05.46.23-.38.27-.73.58-1.05.94-.09-.06-.13-.14-.11-.24l.7-.93Z" fill="#26190B"/><path d="M36.86 38.49c-.47.58-1.09.8-1.86.7.44-.63 1.06-.86 1.86-.7Z" fill="#47341F"/><path d="M38.95 53.14c2.68-.16 4.8.85 6.4 3.02a12.92 12.92 0 0 1 2.44 5.58 2.8 2.8 0 0 1-.23 1.05 4.26 4.26 0 0 1-3.72-1.86c-2.12-1.38-4.44-2-6.98-1.86-.62-.62-.62-1.24 0-1.86 2.1-.29 4.16-.1 6.16.58l.35-.23a4.95 4.95 0 0 0-4.42-2.33c-.61-.7-.61-1.4 0-2.09Z" fill="#895B29"/><path d="M78.49 53.14c.78-.04 1.55 0 2.32.12.98.82.9 1.51-.23 2.09a5.42 5.42 0 0 0-4.07 2.2c-.15.16-.15.32 0 .47a7.74 7.74 0 0 1 1.98-.81 46.6 46.6 0 0 1 4.65-.12c.03.4.1.79.23 1.17 0 .35-.16.62-.46.81-2.5-.17-4.74.45-6.75 1.86-.63.7-1.32 1.33-2.09 1.86-.63.5-1.21.46-1.74-.12.3-4.31 2.35-7.49 6.16-9.53Z" fill="#885A28"/><path d="M22.9 86.63a9.68 9.68 0 0 1 7.45 2.44 36.41 36.41 0 0 1 6.4 9.42c1.92 5.63.25 9.77-5 12.44-4.68 1.89-8.67 1-11.98-2.67A18.77 18.77 0 0 1 17.9 94.3c.4-3.43 2.06-6 5-7.67ZM93.37 86.63c2.6-.45 4.73.33 6.4 2.32a21.15 21.15 0 0 1 1.63 16.52c-1.36 3.79-4.03 5.88-8.03 6.27-4.16.36-7.45-1.11-9.88-4.41a10.25 10.25 0 0 1 .11-10 47.04 47.04 0 0 0 3.73-2.45 3.87 3.87 0 0 0 1.27-3.37 4.76 4.76 0 0 1-.58-.81c1.43-1.85 3.21-3.21 5.35-4.07ZM65.93 92.9a35.85 35.85 0 0 0 14.88 5.36 38.04 38.04 0 0 1-15.11 11.5c-1.6.55-3.23.98-4.89 1.29 0-.8.11-1.57.35-2.33 1.39-3.78 2.7-7.58 3.96-11.4.37-1.45.64-2.92.81-4.41Z" fill="#BEB684"/><path d="M39.19 101.28c2.32 2.16 4.72 4.25 7.2 6.28-3.35.65-6.68 1.3-10 1.97a10.2 10.2 0 0 0 2.8-8.25Z" fill="#BDB583"/><path d="M80.58 100.81a9.75 9.75 0 0 0 2.8 8.72l-10.24-1.86c2.74-2 5.22-4.29 7.44-6.86Z" fill="#BDB381"/></g><defs><clipPath id="a"><path fill="#fff" d="M0 0h120v113.95H0z"/></clipPath></defs></svg>