<svg width="300" height="240" viewBox="0 0 300 240" fill="none" xmlns="http://www.w3.org/2000/svg">
<rect width="300" height="240" fill="white"/>
<rect y="149" width="300" height="91" fill="url(#paint0_radial_747_1612)"/>
<g clip-path="url(#clip0_747_1612)">
<path opacity="0.935" fill-rule="evenodd" clip-rule="evenodd" d="M99.4275 44.5725C101.794 44.1088 103.766 44.7449 105.343 46.4809C107.955 50.9404 110.372 55.5205 112.595 60.2214C113.487 62.0058 114.568 63.6597 115.84 65.1832C121.405 59.855 127.639 55.4657 134.542 52.0153C144.263 48.5576 154.059 48.3032 163.931 51.2519C173.399 55.636 181.542 61.7428 188.359 69.5725C189.377 69.827 190.394 69.827 191.412 69.5725C193.23 67.2119 195.138 64.9219 197.137 62.7023C200.525 60.0238 204.342 59.1332 208.588 60.0305C215.143 61.0837 221.123 63.501 226.527 67.2824C234.042 72.7595 240.848 79.0572 246.947 86.1756C249.274 88.8702 249.91 91.9237 248.855 95.3359C247.919 97.971 246.774 100.515 245.42 102.969C243.574 105.643 241.919 108.442 240.458 111.366C238.937 117.058 237.537 122.784 236.26 128.542C233.277 140.178 225.834 146.603 213.931 147.817C213.358 148.039 212.849 148.357 212.405 148.771C217.501 152.084 220.491 156.791 221.374 162.893C222.946 170.133 222.564 177.258 220.229 184.267C216.235 192.212 209.81 195.711 200.954 194.763C195.016 193.27 189.036 191.87 183.015 190.565C177.76 189.095 172.417 188.459 166.985 188.656C158.352 194.181 149.192 195.326 139.504 192.092C137.107 191.148 134.817 190.003 132.634 188.656C127.202 188.459 121.858 189.095 116.603 190.565C111.441 191.601 106.352 192.873 101.336 194.382C91.3202 196.719 84.0046 193.348 79.3893 184.267C76.3468 174.599 76.7285 165.057 80.5343 155.641C82.0509 152.661 84.2774 150.371 87.2137 148.771C86.769 148.357 86.2601 148.039 85.687 147.817C73.7841 146.603 66.3414 140.178 63.3588 128.542C62.0812 122.784 60.6817 117.058 59.1603 111.366C56.4222 106.909 53.8776 102.329 51.5267 97.626C50.0026 94.6076 49.8754 91.5542 51.145 88.4656C56.8066 81.2774 63.2315 74.8524 70.4198 69.1908C76.3139 64.5739 82.9297 61.4569 90.2672 59.8397C87.7454 54.3689 89.0175 50.1068 94.0839 47.0534C95.8881 46.1812 97.6691 45.3542 99.4275 44.5725ZM102.099 151.824C99.1591 149.677 95.8515 148.469 92.1756 148.198C94.6027 144.042 96.5748 139.652 98.0916 135.031C98.8301 140.783 100.166 146.381 102.099 151.824ZM197.519 151.824C199.452 146.381 200.788 140.783 201.527 135.031C203.043 139.652 205.016 144.042 207.443 148.198C203.767 148.469 200.459 149.677 197.519 151.824Z" fill="#895B29"/>
<path fill-rule="evenodd" clip-rule="evenodd" d="M117.748 67.855C117.968 67.1255 118.349 66.4893 118.893 65.9466C123.885 61.5323 129.356 57.7792 135.305 54.687C142.361 52.3061 149.613 51.5427 157.061 52.3969C168.579 55.6708 178.121 61.9048 185.687 71.0992C188.319 73.0563 190.99 73.1836 193.702 71.4809C195.467 69.0793 197.375 66.7893 199.428 64.6107C201.698 62.8981 204.242 62.2619 207.061 62.7023C212.332 63.4415 217.294 65.0954 221.947 67.6641C231.246 73.9098 239.325 81.4797 246.183 90.374C246.532 92.4847 246.278 94.5202 245.42 96.4809C243.069 101.184 240.524 105.764 237.786 110.221C237.278 111.748 236.768 113.275 236.26 114.802C235.434 121.856 233.526 128.599 230.534 135.031C228.2 139.287 224.702 142.15 220.038 143.618C216.323 144.166 212.76 145.056 209.351 146.29C203.594 135.247 200.731 123.478 200.763 110.985C200.493 110.648 200.175 110.394 199.809 110.221C199.178 109.726 198.606 109.853 198.092 110.603C197.79 111.447 197.854 112.211 198.282 112.893C201.196 132.659 197.189 150.852 186.26 167.473C181.04 174.562 174.743 180.478 167.366 185.221C162.502 188.482 157.158 190.327 151.336 190.756C151.354 189.585 151.545 188.44 151.908 187.321C156.004 178.068 158.803 168.398 160.305 158.313C160.56 155.768 160.56 153.224 160.305 150.679C160.11 150.287 159.919 149.906 159.733 149.534C159.729 148.7 159.347 148.382 158.588 148.58C157.604 149.426 157.35 150.381 157.824 151.443C157.443 163.148 154.771 174.344 149.809 185.031C145.299 174.934 142.5 164.374 141.412 153.351C141.863 151.827 142.181 150.3 142.366 148.771C141.934 148.118 141.361 147.927 140.649 148.198C140.062 148.936 139.616 149.763 139.313 150.679C139.174 158.614 140.319 166.374 142.748 173.962C144.865 179.148 146.71 184.428 148.282 189.802C148.346 190.756 147.901 191.201 146.947 191.137C144.024 190.502 141.161 189.676 138.359 188.656C117.85 177.879 105.573 161.021 101.527 138.084C100.253 129.298 100.316 120.52 101.718 111.748C101.281 109.588 100.326 109.334 98.855 110.985C98.7714 120.735 96.9901 130.15 93.5115 139.229C92.5271 141.934 91.255 144.479 89.6947 146.863C88.35 145.946 86.8869 145.247 85.3054 144.763C77.8051 144.294 72.2708 140.795 68.7023 134.267C65.9125 128.06 64.1314 121.571 63.3588 114.802C62.8499 113.275 62.341 111.748 61.8321 110.221C59.094 105.764 56.5494 101.184 54.1985 96.4809C52.5302 92.9187 53.0391 89.7378 55.7252 86.9389C61.545 80.6094 67.8427 74.8206 74.6183 69.5725C79.7506 65.8629 85.4757 63.6364 91.7939 62.8931C92.3283 65.0039 93.0916 67.0396 94.084 69C92.9592 69.3135 91.8141 69.5043 90.6489 69.5725C89.9523 70.132 89.7615 70.8318 90.0764 71.6718C91.2504 71.9726 92.4588 72.1635 93.7023 72.2443C94.897 73.0565 95.9783 74.0107 96.9466 75.1069C99.7596 79.8381 101.668 84.9271 102.672 90.374C103.308 92.4095 103.944 92.4095 104.58 90.374C104.735 88.9569 104.735 87.5576 104.58 86.1756C113.052 97.5698 124.184 105.013 137.977 108.504C139.928 108.888 141.9 109.079 143.893 109.076C146.001 108.939 148.1 108.876 150.191 108.885C159.21 117.1 165.89 115.509 170.229 104.114C170.636 101.802 169.873 101.292 167.939 102.588C166.995 106.33 164.895 109.193 161.641 111.176C159.909 111.455 158.255 111.201 156.679 110.412C154.898 109.14 153.117 107.868 151.336 106.595C139.701 107.169 129.142 104.116 119.657 97.4351C105.878 86.4389 96.6542 72.3804 91.9848 55.2595C91.7302 54.4962 91.7302 53.7328 91.9848 52.9695C92.6691 51.9026 93.4962 50.9484 94.4657 50.1069C96.6302 48.8332 98.9203 47.879 101.336 47.2443C102.316 47.6484 103.143 48.2846 103.817 49.1527C106.573 55.0476 109.627 60.7728 112.977 66.3282C120.513 77.0299 130.818 82.2462 143.893 81.9771C144.287 80.9399 143.969 80.2401 142.939 79.8779C132.702 79.5493 124.305 75.5417 117.748 67.855Z" fill="#BEB684"/>
<path fill-rule="evenodd" clip-rule="evenodd" d="M118.893 65.9466C118.349 66.4893 117.968 67.1255 117.748 67.855C117.143 67.6632 116.952 67.2815 117.176 66.7099C117.683 66.2969 118.256 66.0424 118.893 65.9466Z" fill="#A08351"/>
<path fill-rule="evenodd" clip-rule="evenodd" d="M205.153 69.3817C206.305 69.3189 207.45 69.3824 208.588 69.5725C209.883 70.1699 210.011 70.9333 208.969 71.8626C207.824 71.9898 206.679 72.1171 205.534 72.2443C202.386 75.1715 200.16 78.6702 198.855 82.7405C198.143 85.9702 197.252 89.1508 196.183 92.2824C195.313 91.3042 194.867 90.1592 194.847 88.8473C195.544 83.6405 197.261 78.8057 200 74.3435C201.426 72.3444 203.143 70.6905 205.153 69.3817Z" fill="#8A5E2C"/>
<path fill-rule="evenodd" clip-rule="evenodd" d="M175.763 75.1069C174.242 74.9197 172.842 75.1742 171.565 75.8702C171.532 75.4901 171.66 75.1721 171.947 74.916C173.293 74.6078 174.565 74.6714 175.763 75.1069Z" fill="#9B7947"/>
<path fill-rule="evenodd" clip-rule="evenodd" d="M175.763 75.1069C177.289 75.1671 178.497 75.8032 179.389 77.0153C179.681 79.4264 179.872 81.8437 179.962 84.2672C180.14 85.6649 179.885 86.937 179.198 88.084C178.024 88.0256 176.942 88.2802 175.954 88.8473C174.816 88.2225 173.671 87.5863 172.519 86.9389C171.774 83.8145 171.329 80.6338 171.183 77.3969C171.187 76.8072 171.315 76.2983 171.565 75.8702C172.842 75.1742 174.242 74.9197 175.763 75.1069Z" fill="#885A28"/>
<path fill-rule="evenodd" clip-rule="evenodd" d="M199.809 110.221C198.478 110.582 197.969 111.473 198.282 112.893C197.854 112.211 197.79 111.447 198.092 110.603C198.606 109.853 199.178 109.726 199.809 110.221Z" fill="#9F814F"/>
<path fill-rule="evenodd" clip-rule="evenodd" d="M159.733 149.534C158.715 149.789 158.079 150.425 157.824 151.443C157.35 150.381 157.604 149.426 158.588 148.58C159.347 148.382 159.729 148.7 159.733 149.534Z" fill="#A18351"/>
<path fill-rule="evenodd" clip-rule="evenodd" d="M89.1222 151.061C93.7661 150.679 97.8375 152.015 101.336 155.069C105.637 159.66 109.136 164.812 111.832 170.527C114.99 179.763 112.255 186.57 103.626 190.947C95.9523 194.046 89.4001 192.583 83.9695 186.557C79.984 179.345 78.9662 171.711 80.9161 163.657C81.5649 158.018 84.3002 153.819 89.1222 151.061Z" fill="#BEB684"/>
<path fill-rule="evenodd" clip-rule="evenodd" d="M204.771 151.061C209.053 150.261 212.551 151.534 215.267 154.878C219.846 163.521 220.737 172.554 217.939 181.977C215.695 188.294 211.242 191.729 204.58 192.282C195.364 192.849 189.384 188.778 186.641 180.069C186.182 176.784 186.563 173.603 187.786 170.527C190.517 164.617 194.143 159.337 198.664 154.687C200.547 153.175 202.583 151.966 204.771 151.061Z" fill="#BEB684"/>
<path fill-rule="evenodd" clip-rule="evenodd" d="M115.84 175.107C119.646 178.656 123.59 182.091 127.672 185.412C122.167 186.475 116.696 187.556 111.26 188.656C114.722 184.821 116.249 180.304 115.84 175.107Z" fill="#BDB583"/>
<path fill-rule="evenodd" clip-rule="evenodd" d="M183.015 175.107C183.54 177.97 184.24 180.896 185.115 183.885C185.897 185.685 186.979 187.275 188.359 188.656C182.668 187.602 176.943 186.584 171.183 185.603C175.665 182.712 179.609 179.213 183.015 175.107Z" fill="#BDB381"/>
</g>
<defs>
<radialGradient id="paint0_radial_747_1612" cx="0" cy="0" r="1" gradientUnits="userSpaceOnUse" gradientTransform="translate(150 194.5) rotate(90) scale(45.5 150)">
<stop stop-color="#F2CB40"/>
<stop offset="1" stop-color="#F2CB40" stop-opacity="0"/>
</radialGradient>
<clipPath id="clip0_747_1612">
<rect width="200" height="151.908" fill="white" transform="translate(50 44)"/>
</clipPath>
</defs>
</svg>
