<svg width="90" height="69" fill="none" xmlns="http://www.w3.org/2000/svg"><path opacity=".94" fill-rule="evenodd" clip-rule="evenodd" d="M60.15 7.27c.2.5.56.91 1.05 1.22.25.35.54.67.87.97.17.12.28.09.35-.1.5.41 1.03.44 1.58.1l1.92-2.28a4.63 4.63 0 0 1 3.5-.18c2.1.76 3.96 1.86 5.6 3.33a107.5 107.5 0 0 1 5.09 5.25c3.21 2.1 6.27 4.41 9.19 6.92.4.57.47 1.15.17 1.75a14.1 14.1 0 0 0-2.97 4.38c-.63 2.44-1.21 4.89-1.75 7.35a15.02 15.02 0 0 1-4.12 7.1 12.15 12.15 0 0 1-6.3 2.27c-.26.1-.5.25-.7.44a7.75 7.75 0 0 1 3.85 5.43c.88 3.26.9 6.53.09 9.8-.9 3-2.86 4.96-5.87 5.87-2.35.26-4.63-.03-6.83-.88-3-.72-6.04-1.34-9.1-1.84-.73.13-1.37.45-1.93.97-1.27.6-2.58.75-3.94.43a4.65 4.65 0 0 1-3.06 2.02c-1.79.3-3.54.13-5.25-.53-.61-.43-1.17-.92-1.67-1.49a5.46 5.46 0 0 1-5.16-1.3l-.7-.1a94.2 94.2 0 0 0-11.38 2.54c-4.06 1.04-7.24-.15-9.55-3.59a14.91 14.91 0 0 1-1.4-8.58c.16-2.63.98-5.03 2.45-7.18.65-.55 1.32-1.08 2.02-1.57-.2-.2-.44-.34-.7-.44-5.46-.56-8.88-3.5-10.25-8.84-.65-2.82-1.35-5.62-2.1-8.4a12.04 12.04 0 0 0-2.8-3.86c-.29-.6-.23-1.18.18-1.75a88.03 88.03 0 0 1 9.19-6.92c1.63-1.8 3.32-3.55 5.08-5.25A17.02 17.02 0 0 1 20.4 7c1.2-.4 2.36-.34 3.5.18l1.93 2.28c.32.22.67.28 1.05.17a22.8 22.8 0 0 0 4.37-3.85A20.88 20.88 0 0 1 49.3.53a25.06 25.06 0 0 1 10.86 6.74ZM22.5 46.84a8.66 8.66 0 0 0-4.03-1.31 24.8 24.8 0 0 0 2.54-5.7c.11 2.42.6 4.76 1.49 7Zm44.82 0a21.7 21.7 0 0 0 1.5-7 24.8 24.8 0 0 0 2.53 5.69c-1.45.1-2.8.54-4.03 1.3Z" fill="#885A29"/><path fill-rule="evenodd" clip-rule="evenodd" d="M53.5 47.89a.8.8 0 0 0-.7-.18v-2.27c.18-2.74.2-5.49.08-8.23-.4-.26-.71-.2-.96.17-.15 3.48-.33 6.98-.53 10.5-.33 4.4-.83 8.78-1.49 13.14a20.85 20.85 0 0 1-1.22 4.03 5.08 5.08 0 0 1-4.64 1.31A3.45 3.45 0 0 1 40.62 64c-.44-1.5-.79-3.02-1.05-4.55A193.9 193.9 0 0 1 38 37.38c-.3-.36-.66-.42-1.05-.17-.16 3.3-.07 6.6.26 9.9l-.09.95c-.3-.18-.62-.21-.96-.08a.87.87 0 0 0-.18.43c.4 2.18 1.01 4.28 1.84 6.3.27 3.33.83 6.6 1.66 9.81a4.55 4.55 0 0 1-3.32-.78 26.34 26.34 0 0 1-7.8-9.02 157.96 157.96 0 0 1-4.72-8.76 19.16 19.16 0 0 1-1.32-6.65c.23-2.27.37-4.55.44-6.83.32-1.51.59-3.03.8-4.55-.41-.05-.79.01-1.15.17-.7 3.59-1.52 7.15-2.45 10.68a24.97 24.97 0 0 1-2.63 6.13c-.63-.39-1.3-.71-2-.96a8.8 8.8 0 0 1-7.63-4.82 51.53 51.53 0 0 1-1.22-3.15c-.61-2.82-1.31-5.62-2.1-8.4a19.12 19.12 0 0 0-2.8-4.2 56.42 56.42 0 0 1 8.49-6.4c1.75-1.7 3.45-3.44 5.08-5.25a18.5 18.5 0 0 1 5.07-3.33 6.84 6.84 0 0 1 2.8-.17c.6.53 1.1 1.15 1.5 1.84.94 1 2.02 1.15 3.23.44a5.06 5.06 0 0 0 2.28-2.46l.87-.17a28.16 28.16 0 0 1 8.23-5.43c1.5-.44 3.01-.73 4.56-.87.32-.4.73-.52 1.22-.35a20.9 20.9 0 0 1 14.01 6.65l.7.17 1.75 2.1c.87.53 1.8.76 2.8.7l1.05-.7c.45-.7.97-1.35 1.58-1.92 1.64-.2 3.16.15 4.55 1.05 1.28.87 2.5 1.8 3.68 2.8a93.47 93.47 0 0 0 4.73 4.9 72.09 72.09 0 0 1 8.14 6.05c.12.23.12.46 0 .7a19.46 19.46 0 0 0-2.98 5.25l-1.4 6.3a13.31 13.31 0 0 1-3.94 6.92 10.17 10.17 0 0 1-5.25 1.75c-.61.22-1.2.48-1.75.79a.86.86 0 0 1-.44-.18 41 41 0 0 1-2.28-5.78c-.92-3.53-1.74-7.09-2.45-10.68a2.14 2.14 0 0 0-1.14-.17c.21 1.52.47 3.04.8 4.55.06 2.28.2 4.56.43 6.83-.04 2.3-.48 4.51-1.31 6.65-2.3 4.6-4.87 9.04-7.7 13.31a19.53 19.53 0 0 1-6.4 5.17c-.58.08-1.16.11-1.75.08a95.5 95.5 0 0 0 1.66-9.8 31.66 31.66 0 0 0 1.84-6.3c.01-.27-.1-.45-.35-.53Z" fill="#BFB785"/><path opacity=".77" fill-rule="evenodd" clip-rule="evenodd" d="M60.15 7.27c.4.29.75.64 1.05 1.05v.17a2.65 2.65 0 0 1-1.05-1.22Z" fill="#53493F"/><path fill-rule="evenodd" clip-rule="evenodd" d="M61.2 8.32c.44.3.85.66 1.22 1.05-.07.18-.18.2-.35.09-.33-.3-.62-.62-.87-.97v-.17Z" fill="#9B7C4A"/><path fill-rule="evenodd" clip-rule="evenodd" d="M20.22 11.47c.65-.03 1.29 0 1.93.09.37.14.69.34.96.6a10.75 10.75 0 0 1 1.14 7.19c-.38.24-.7.18-.96-.18.06-1.85-.18-3.66-.7-5.42a2.77 2.77 0 0 0-.62-.97 4.42 4.42 0 0 0-1.75 0 15.4 15.4 0 0 0-3.85 2.1c-.34.09-.7.12-1.05.1-.07-.45.05-.83.35-1.15a28.13 28.13 0 0 1 4.55-2.36Z" fill="#8A5E2C"/><path fill-rule="evenodd" clip-rule="evenodd" d="M67.5 11.47c1.22-.1 2.4.1 3.5.61 1.1.5 2.16 1.08 3.15 1.75.16.3.22.62.18.97-.36.02-.7 0-1.05-.1a12.83 12.83 0 0 0-4.03-1.92c-1.01-.35-1.68-.03-2.01.97a16.96 16.96 0 0 0-.7 5.42c-.26.36-.59.42-.97.18a10.74 10.74 0 0 1 1.14-7.18c.25-.28.5-.5.79-.7Z" fill="#8A5D2B"/><path fill-rule="evenodd" clip-rule="evenodd" d="M34.76 27.05c.9-.2 1.43.15 1.57 1.05l.53.35c.03.82.12 1.64.26 2.45-.36.42-.74.8-1.14 1.14a19.4 19.4 0 0 1-5.25 1.23c-.39-.39-.45-.83-.18-1.31a1.2 1.2 0 0 1-.7-.97c.11-.6.14-1.22.1-1.84.39-.32.82-.59 1.3-.78a24.9 24.9 0 0 0 3.5-1.32Z" fill="#885A28"/><path fill-rule="evenodd" clip-rule="evenodd" d="M52.97 27.58c1.72.5 3.41 1.12 5.07 1.84 1.08.31 1.3.92.7 1.83.25.44.43.9.53 1.4 1.19 1.23 1.13 2.42-.17 3.6-2.78 1.1-4 .19-3.68-2.72-.96-.15-1.9-.41-2.8-.79-.13-.3-.22-.62-.27-.96-.26-.13-.5-.3-.7-.53 0-.76.12-1.52.35-2.27.18-.15.39-.2.62-.18-.06-.47.05-.88.35-1.22Z" fill="#895B29"/><path fill-rule="evenodd" clip-rule="evenodd" d="M58.22 33.36c1.02.48 1.14 1.15.35 2.01-.77.36-1.5.34-2.19-.09-.09-.4-.11-.81-.09-1.22.53.03 1.06 0 1.58-.1a.69.69 0 0 0 .35-.6Z" fill="#fff"/><path fill-rule="evenodd" clip-rule="evenodd" d="M51.92 37.38c.02 2.63-.04 5.26-.18 7.88.03.92-.09 1.8-.35 2.63.2-3.53.38-7.03.53-10.5Z" fill="#946E3C"/><path fill-rule="evenodd" clip-rule="evenodd" d="M17.07 46.84c2.13-.18 4 .44 5.6 1.84a22.27 22.27 0 0 1 4.82 7.09c1.45 4.24.2 7.36-3.76 9.37-4.42 1.74-7.72.54-9.9-3.6a16.25 16.25 0 0 1 .7-12.43 6.77 6.77 0 0 1 2.54-2.27ZM70.13 46.84a4.69 4.69 0 0 1 4.81 1.75c2.1 3.96 2.51 8.1 1.23 12.43a6.62 6.62 0 0 1-6.13 4.73c-4.23.26-6.97-1.6-8.23-5.6a8.48 8.48 0 0 1 .52-4.38 22.35 22.35 0 0 1 5-7.27c.86-.7 1.8-1.25 2.8-1.66Z" fill="#BFB785"/><path fill-rule="evenodd" clip-rule="evenodd" d="M52.8 45.44v2.27a.8.8 0 0 1 .7.18c-.3-.04-.56.02-.8.17-.14-.9-.11-1.78.1-2.62Z" fill="#A48957"/><path fill-rule="evenodd" clip-rule="evenodd" d="M29.33 58.57a26.57 26.57 0 0 0 3.85 4.29c-2 .43-3.98.84-5.95 1.23a7.04 7.04 0 0 0 2.1-5.52Z" fill="#BDB482"/><path fill-rule="evenodd" clip-rule="evenodd" d="M60.32 58.57a8.15 8.15 0 0 0 2.28 5.52c-2.02-.26-4-.66-5.96-1.23a18.26 18.26 0 0 0 3.68-4.29Z" fill="#BCB280"/></svg>