<svg width="90" height="68" fill="none" xmlns="http://www.w3.org/2000/svg"><g clip-path="url(#a)" fill-rule="evenodd" clip-rule="evenodd"><path opacity=".93" d="M89.91 11.87v4.92c-.19 2.04-.51 4.1-.96 6.15a52.84 52.84 0 0 0-3.87 13.18 16.61 16.61 0 0 1-3.52 7.03c-2 1.72-4.3 2.69-6.94 2.9-.32.14-.62.31-.88.53a6.99 6.99 0 0 1 3.43 3.96 18.93 18.93 0 0 1 .17 12.3 9.53 9.53 0 0 1-5.53 4.92h-3.34a102.3 102.3 0 0 0-14.24-2.98l-1.4.08a16.15 16.15 0 0 1-9.85 2.29A16.38 16.38 0 0 1 37 64.86c-.94-.11-1.87-.11-2.81 0-4.35.78-8.63 1.75-12.83 2.9h-3.34c-3.87-1.44-6.01-4.25-6.42-8.43-.27-3 .08-5.94 1.06-8.8a7.47 7.47 0 0 1 3.42-4.04c-.2-.19-.44-.33-.7-.44a10.59 10.59 0 0 1-8.52-4.83c-.9-1.68-1.6-3.44-2.11-5.27-.72-4.46-2.01-8.74-3.87-12.83a44.2 44.2 0 0 1-.97-5.63v-6.33a9.1 9.1 0 0 1 2.64-5C3.28 5.6 4.1 5.25 5 5.1c3.32-.55 6.66-.73 10.02-.53 3.17.16 5.98 1.21 8.44 3.16l2.46 2.47c.43.12.84.06 1.23-.18l1.58-1.32c-.01.08.02.14.09.18.24-.27.5-.5.79-.7-.08-.15-.2-.2-.35-.18C35.32 1.39 42.7-.75 51.42 1.58a33.22 33.22 0 0 1 11.25 8.44c.6.12 1.18.06 1.75-.18A12.99 12.99 0 0 1 74.8 4.57c3.42-.2 6.82-.03 10.2.53a5.62 5.62 0 0 1 4.13 3.78c.35 1 .62 2 .8 2.99ZM68.64 39.8c.7 2.12 1.59 4.17 2.64 6.16a12.33 12.33 0 0 0-4.22 1.93l-.18-.09c.88-2.6 1.47-5.26 1.76-8Zm-45.7 8.09a8.68 8.68 0 0 0-4.57-1.67 31.43 31.43 0 0 0 2.72-6.06c.34 2.65.96 5.22 1.85 7.73Z" fill="#885B29"/><path d="M26.1 11.69c.59.08 1.06-.1 1.41-.53l.88-.44a28 28 0 0 1 9.67-7.56c1.3-.49 2.66-.84 4.04-1.05 2.05-.12 4.1-.12 6.15 0 5.3 1.5 9.69 4.37 13.19 8.61 1.19.94 2.42 1 3.69.18A13.39 13.39 0 0 1 76.99 5.7c2.5.07 5 .27 7.47.62a5.19 5.19 0 0 1 3.96 4.66c.32 3.65.14 7.28-.53 10.9-2 4.56-3.41 9.3-4.22 14.23a13.53 13.53 0 0 1-3.6 6.6 9.83 9.83 0 0 1-5.45 1.93c-.7.23-1.34.55-1.93.97a10.8 10.8 0 0 1-1.5-2.82c-.68-1.98-1.32-3.97-1.93-5.97-.36-2.57-.65-5.15-.88-7.74-.34-.61-.75-.67-1.23-.17.35 2.85.53 5.72.53 8.6a50.48 50.48 0 0 1-1.94 9.68c-.3.82-.67 1.58-1.14 2.28a32.13 32.13 0 0 1-8.53-6.68 19.2 19.2 0 0 1-3.86-8.61c-.3-.37-.66-.43-1.06-.18a18.59 18.59 0 0 0 4.22 9.85 49.61 49.61 0 0 0 3.6 3.43l6.42 4.3c.05.64-.22 1.14-.79 1.5a7.89 7.89 0 0 1-6.86 1.58 27.79 27.79 0 0 1-16.43-13.1 55.08 55.08 0 0 1-2.73-6.41c-.8-.17-1.07.15-.79.96a28.85 28.85 0 0 0 6.33 11.43c1.47 1.32 2.9 2.67 4.3 4.04-.73 4-1.9 7.87-3.5 11.6a46.82 46.82 0 0 1-3.88-14.59c.21-.7.36-1.4.44-2.1-.2-.3-.46-.4-.79-.27-.27.34-.47.72-.61 1.14-.14 3.67.39 7.25 1.58 10.73.87 2.26 1.7 4.55 2.46 6.85.23.6.05.94-.53 1.06-1.34-.3-2.66-.68-3.95-1.15-9.45-4.96-15.1-12.72-16.96-23.29a26.15 26.15 0 0 1-.44-5.36c.1-2.5.21-4.98.35-7.47-.45-.07-.83.05-1.14.35 0 5.71-1.28 11.1-3.87 16.17l-.35.36a7.42 7.42 0 0 0-2.02-.97 9 9 0 0 1-7.48-4.48c-.45-.98-.86-1.98-1.23-3-.79-3.09-1.55-6.2-2.28-9.3a72.43 72.43 0 0 0-2.11-5.28 33.55 33.55 0 0 1-.7-11.96 5.39 5.39 0 0 1 2.72-3.95 28.37 28.37 0 0 1 15.82.35 20.3 20.3 0 0 1 5.45 4.57c.23.09.46.12.7.09Z" fill="#BEB684"/><path d="M14.5 7.47c4.13.76 6.98 3.1 8.53 7.03.74 1.69 1.1 3.45 1.05 5.28l-.44.52c-.3-.36-.5-.77-.61-1.23a13.04 13.04 0 0 0-5.19-9.23c-1.12-.56-2.29-.97-3.51-1.23-.24-.42-.18-.8.17-1.14Z" fill="#8A5D2B"/><path d="M74.62 7.47c.85-.02 1.08.36.7 1.14a9.1 9.1 0 0 0-6.59 4.66l-1.05 2.11a54.95 54.95 0 0 1-1.5 5.1 2.1 2.1 0 0 1-.7-1.32 15.1 15.1 0 0 1 5.27-10.02c1.2-.8 2.5-1.36 3.87-1.67Z" fill="#8A5E2C"/><path opacity=".81" d="M29.27 8c.15-.02.27.03.35.17-.3.2-.55.44-.8.7-.06-.03-.1-.1-.08-.17l.53-.7Z" fill="#26190B"/><path d="M27.51 11.16c-.35.44-.82.61-1.4.53.33-.47.8-.65 1.4-.53Z" fill="#47341F"/><path d="M29.1 22.24a5.28 5.28 0 0 1 4.83 2.28 9.76 9.76 0 0 1 1.84 4.22c0 .28-.07.55-.17.8a3.22 3.22 0 0 1-2.82-1.41 8.6 8.6 0 0 0-5.27-1.41c-.47-.47-.47-.94 0-1.4 1.6-.22 3.15-.08 4.66.43l.26-.17a3.74 3.74 0 0 0-3.34-1.76c-.46-.53-.46-1.06 0-1.58Z" fill="#895B29"/><path d="M58.97 22.24c.6-.03 1.18 0 1.76.08.74.62.68 1.15-.17 1.59a4.1 4.1 0 0 0-3.08 1.67c-.12.11-.12.23 0 .35.47-.28.97-.48 1.5-.62 1.17-.09 2.34-.11 3.51-.09.02.3.08.6.18.88a.7.7 0 0 1-.36.62 7.7 7.7 0 0 0-5.1 1.4c-.47.54-1 1-1.58 1.41-.47.38-.91.35-1.31-.09a8.35 8.35 0 0 1 4.65-7.2Z" fill="#885A28"/><path d="M16.96 47.55a7.32 7.32 0 0 1 5.63 1.84 27.52 27.52 0 0 1 4.83 7.12c1.46 4.26.2 7.4-3.78 9.4-3.53 1.44-6.55.76-9.05-2.01a14.19 14.19 0 0 1-1.4-10.55 7.28 7.28 0 0 1 3.77-5.8ZM70.22 47.55a4.83 4.83 0 0 1 4.84 1.76 15.99 15.99 0 0 1 1.23 12.48 6.68 6.68 0 0 1-6.07 4.74 7.87 7.87 0 0 1-7.47-3.34 7.75 7.75 0 0 1 .1-7.56c.96-.57 1.9-1.18 2.8-1.84.75-.7 1.07-1.55.97-2.55a3.6 3.6 0 0 1-.44-.62 9.47 9.47 0 0 1 4.04-3.07ZM49.48 52.3a27.1 27.1 0 0 0 11.25 4.04 28.76 28.76 0 0 1-11.42 8.7c-1.21.41-2.44.73-3.7.97 0-.6.09-1.19.27-1.76 1.05-2.86 2.04-5.73 2.99-8.62a25 25 0 0 0 .61-3.34Z" fill="#BEB684"/><path d="M29.27 58.62c1.75 1.64 3.57 3.22 5.45 4.75-2.54.49-5.06.99-7.56 1.5a7.7 7.7 0 0 0 2.1-6.25Z" fill="#BDB583"/><path d="M60.56 58.27c-.4 2.53.3 4.72 2.1 6.6l-7.73-1.41a33.72 33.72 0 0 0 5.63-5.19Z" fill="#BDB381"/></g><defs><clipPath id="a"><path fill="#fff" d="M0 0h90v67.85H0z"/></clipPath></defs></svg>