<svg width="70" height="55" fill="none" xmlns="http://www.w3.org/2000/svg"><path opacity=".94" fill-rule="evenodd" clip-rule="evenodd" d="M17.3.2c.83-.16 1.52.07 2.07.69.91 1.59 1.76 3.22 2.54 4.9.31.64.69 1.23 1.13 1.78a26.63 26.63 0 0 1 6.55-4.7 15.85 15.85 0 0 1 10.29-.28 25.36 25.36 0 0 1 8.55 6.54c.35.1.7.1 1.06 0a41.3 41.3 0 0 1 2-2.45 4.56 4.56 0 0 1 4.02-.95c2.29.37 4.38 1.23 6.27 2.59a42.16 42.16 0 0 1 7.15 6.74 3.3 3.3 0 0 1 .67 3.27c-.33.95-.73 1.85-1.2 2.73-.65.96-1.23 1.95-1.74 3-.53 2.03-1.02 4.08-1.47 6.13-1.04 4.16-3.65 6.45-7.81 6.89-.2.08-.38.2-.54.34a6.95 6.95 0 0 1 3.14 5.04c.55 2.59.42 5.13-.4 7.64-1.4 2.83-3.65 4.08-6.75 3.74-2.07-.53-4.17-1.03-6.27-1.5a17.9 17.9 0 0 0-5.62-.68 10.54 10.54 0 0 1-12.02 0 17.9 17.9 0 0 0-5.6.68c-1.82.37-3.6.83-5.35 1.37-3.5.83-6.07-.37-7.68-3.61a15 15 0 0 1 .4-10.23 5.6 5.6 0 0 1 2.33-2.45 1.66 1.66 0 0 0-.53-.34c-4.17-.44-6.77-2.73-7.81-6.89-.45-2.05-.94-4.1-1.47-6.13a64.64 64.64 0 0 1-2.68-4.9 3.84 3.84 0 0 1-.13-3.28A40.71 40.71 0 0 1 7.15 9a16.94 16.94 0 0 1 6.94-3.34c-.88-1.96-.43-3.48 1.34-4.57L17.3.2Zm.93 38.3a6.51 6.51 0 0 0-3.47-1.29 24.62 24.62 0 0 0 2.07-4.7c.26 2.06.73 4.05 1.4 6Zm33.4 0a29.33 29.33 0 0 0 1.4-5.99 24.62 24.62 0 0 0 2.07 4.7c-1.28.1-2.44.53-3.47 1.3Z" fill="#895B29"/><path fill-rule="evenodd" clip-rule="evenodd" d="M23.71 8.52c.08-.26.21-.49.4-.68a28.41 28.41 0 0 1 5.75-4.02c2.47-.85 5-1.13 7.61-.82A19.6 19.6 0 0 1 47.5 9.68c.92.7 1.86.74 2.8.13.62-.85 1.3-1.67 2.01-2.45.8-.61 1.68-.84 2.67-.68 1.85.26 3.58.85 5.21 1.77a36.27 36.27 0 0 1 8.48 8.11c.13.76.04 1.48-.26 2.18a64.64 64.64 0 0 1-2.67 4.91l-.54 1.64a23.86 23.86 0 0 1-2 7.22 6.17 6.17 0 0 1-3.68 3.07c-1.3.2-2.54.51-3.74.95a27.18 27.18 0 0 1-3-12.6.95.95 0 0 0-.34-.28c-.22-.18-.42-.13-.6.14-.1.3-.08.57.07.81a27.59 27.59 0 0 1-4.2 19.5 25.02 25.02 0 0 1-6.62 6.34 11.27 11.27 0 0 1-5.61 1.97c0-.42.07-.82.2-1.22a40.68 40.68 0 0 0 2.94-10.36c.09-.91.09-1.82 0-2.73l-.2-.4c0-.3-.14-.42-.4-.35-.35.3-.44.64-.27 1.02a31.08 31.08 0 0 1-2.8 12 36.9 36.9 0 0 1-2.95-11.32c.16-.54.27-1.09.34-1.63-.15-.23-.35-.3-.6-.2-.2.26-.36.55-.47.88-.05 2.83.35 5.6 1.2 8.31a59.14 59.14 0 0 1 1.94 5.66c.02.34-.13.5-.47.48a22.85 22.85 0 0 1-3-.89c-7.18-3.85-11.48-9.87-12.9-18.06-.44-3.14-.42-6.27.07-9.4-.15-.78-.49-.87-1-.28a29.17 29.17 0 0 1-1.87 10.09c-.35.97-.8 1.88-1.34 2.73a5.59 5.59 0 0 0-1.53-.75 6.7 6.7 0 0 1-5.81-3.75 23.68 23.68 0 0 1-1.87-6.95l-.54-1.64a64.66 64.66 0 0 1-2.67-4.9c-.58-1.28-.4-2.42.53-3.41a53.75 53.75 0 0 1 6.62-6.2c1.8-1.33 3.8-2.13 6-2.4.2.76.46 1.49.8 2.19-.38.11-.79.18-1.2.2-.24.2-.3.45-.2.75.42.11.84.18 1.28.2.41.3.8.64 1.13 1.03a16.6 16.6 0 0 1 2 5.45c.23.73.45.73.67 0 .06-.5.06-1 0-1.5a20.37 20.37 0 0 0 11.7 7.98c.67.13 1.36.2 2.06.2.74-.05 1.48-.07 2.2-.07 3.16 2.94 5.5 2.37 7.02-1.7.14-.83-.12-1-.8-.55a4.84 4.84 0 0 1-2.2 3.07c-.61.1-1.2.01-1.74-.27l-1.87-1.36c-4.07.2-7.77-.89-11.09-3.28a28.38 28.38 0 0 1-9.69-15.06 1.28 1.28 0 0 1 0-.82c.24-.38.53-.72.87-1.02.76-.45 1.56-.8 2.4-1.02.35.14.64.37.88.68a66.5 66.5 0 0 0 3.2 6.13c2.64 3.83 6.25 5.69 10.82 5.6.14-.38.03-.63-.33-.76a11.5 11.5 0 0 1-8.82-4.29Z" fill="#BEB684"/><path fill-rule="evenodd" clip-rule="evenodd" d="M24.11 7.84c-.19.2-.32.42-.4.68-.21-.07-.28-.2-.2-.4.18-.16.38-.25.6-.28Z" fill="#A08351"/><path fill-rule="evenodd" clip-rule="evenodd" d="M54.3 9.06c.4-.02.8 0 1.2.07.46.22.5.49.14.82l-1.2.14a8.67 8.67 0 0 0-2.34 3.75 32.1 32.1 0 0 1-.94 3.4c-.3-.35-.46-.75-.46-1.22a13.3 13.3 0 0 1 1.8-5.18c.5-.72 1.1-1.3 1.8-1.78Z" fill="#8A5E2C"/><path fill-rule="evenodd" clip-rule="evenodd" d="M44.02 11.11a2.35 2.35 0 0 0-1.47.27.4.4 0 0 1 .13-.34c.47-.1.92-.09 1.34.07Z" fill="#9B7947"/><path fill-rule="evenodd" clip-rule="evenodd" d="M44.02 11.11c.53.02.95.25 1.27.68.1.86.17 1.73.2 2.6.06.49-.03.94-.27 1.35a2 2 0 0 0-1.14.28l-1.2-.68a18.51 18.51 0 0 1-.47-3.41c0-.21.05-.4.14-.55.44-.25.93-.34 1.47-.27Z" fill="#885A28"/><path fill-rule="evenodd" clip-rule="evenodd" d="M52.43 23.65c-.46.13-.64.45-.53.95a.91.91 0 0 1-.07-.81c.18-.27.38-.32.6-.14Z" fill="#9F814F"/><path fill-rule="evenodd" clip-rule="evenodd" d="M38.4 37.7a.87.87 0 0 0-.66.67c-.17-.38-.08-.72.27-1.02.26-.07.4.04.4.34Z" fill="#A18351"/><path fill-rule="evenodd" clip-rule="evenodd" d="M13.7 38.24a5.5 5.5 0 0 1 4.27 1.43 21.37 21.37 0 0 1 3.67 5.52c1.1 3.3.15 5.73-2.87 7.3-2.69 1.1-4.98.58-6.88-1.58a11.2 11.2 0 0 1-1.07-8.18 5.65 5.65 0 0 1 2.87-4.5ZM54.17 38.24c1.5-.29 2.72.16 3.67 1.36 1.6 3.09 1.92 6.31.94 9.68a5.07 5.07 0 0 1-4.68 3.68c-3.22.2-5.32-1.25-6.28-4.36a6.72 6.72 0 0 1 .4-3.41c.96-2.11 2.23-4 3.81-5.66a8.69 8.69 0 0 1 2.14-1.3Z" fill="#BEB684"/><path fill-rule="evenodd" clip-rule="evenodd" d="M23.04 46.82a81.95 81.95 0 0 0 4.15 3.68l-5.75 1.16a6.29 6.29 0 0 0 1.6-4.84Z" fill="#BDB583"/><path fill-rule="evenodd" clip-rule="evenodd" d="M46.56 46.82c.18 1.03.42 2.07.73 3.14a5.5 5.5 0 0 0 1.14 1.7c-2-.37-4-.74-6.02-1.09a18.22 18.22 0 0 0 4.15-3.75Z" fill="#BDB381"/><path d="M42.2 32.4h-2.4a7.2 7.2 0 0 0-7.02 5.6c-.2.88-.9 1.58-1.79 1.78a7.2 7.2 0 0 0-5.59 7.02v2.4a2.4 2.4 0 0 0 2.4 2.4h2.4a7.2 7.2 0 0 0 7.02-5.6c.2-.88.9-1.58 1.79-1.78a7.2 7.2 0 0 0 5.59-7.02v-2.4a2.4 2.4 0 0 0-2.4-2.4ZM27.8 46.8h-1.2a5.97 5.97 0 0 1 4.66-5.85l.27 1.17a4.77 4.77 0 0 0-3.73 4.68Zm12-12a4.77 4.77 0 0 0-4.68 3.73l-1.17-.27a5.97 5.97 0 0 1 5.85-4.66v1.2Z" fill="#875826"/></svg>