<svg width="16" height="16" viewBox="0 0 16 16" fill="none" xmlns="http://www.w3.org/2000/svg">
<path d="M14 0H12C9.1466 0 6.7584 1.992 6.15 4.6612C5.9822 5.3978 5.3978 5.9822 4.6612 6.15C1.992 6.7582 0 9.1466 0 12V14C0 15.1046 0.8954 16 2 16H4C6.8534 16 9.2416 14.008 9.85 11.3388C10.0178 10.6022 10.6022 10.0178 11.3388 9.85C14.008 9.2416 16 6.8534 16 4V2C16 0.8954 15.1046 0 14 0ZM2 12H1C1 9.6508 2.5968 7.646 4.8834 7.125L5.1056 8.1C3.277 8.5166 2 10.1204 2 12ZM12 2C10.1204 2 8.5166 3.277 8.1 5.1056L7.125 4.8834C7.646 2.5968 9.6508 1 12 1V2Z" fill="#BFB785"/>
</svg>
