<svg width="600" height="475" viewBox="0 0 600 475" fill="none" xmlns="http://www.w3.org/2000/svg">
<path opacity="0.936" fill-rule="evenodd" clip-rule="evenodd" d="M148.282 1.71756C155.383 0.326332 161.299 2.23473 166.031 7.44275C173.866 20.8211 181.118 34.5616 187.786 48.6641C190.461 54.0173 193.705 58.9791 197.519 63.5496C214.215 47.565 232.917 34.3971 253.626 24.0458C282.788 13.6729 312.177 12.9096 341.794 21.7557C370.198 34.9079 394.625 53.2285 415.076 76.7176C418.13 77.481 421.183 77.481 424.237 76.7176C429.689 69.6358 435.414 62.7656 441.412 56.1069C451.576 48.0715 463.026 45.3996 475.763 48.0916C495.429 51.251 513.369 58.503 529.58 69.8473C552.125 86.2786 572.544 105.172 590.84 126.527C597.822 134.611 599.73 143.771 596.565 154.008C593.758 161.913 590.323 169.546 586.26 176.908C580.721 184.928 575.758 193.325 571.374 202.099C566.81 219.175 562.611 236.351 558.779 253.626C549.831 288.535 527.503 307.81 491.794 311.45C490.074 312.118 488.548 313.072 487.214 314.313C502.503 324.251 511.473 338.373 514.122 356.679C518.837 378.398 517.692 399.773 510.687 420.802C498.705 444.637 479.43 455.133 452.863 452.29C430.993 446.871 409.047 441.718 387.023 436.832C373.324 453.902 355.576 464.398 333.779 468.321C306.669 473.226 279.952 471.7 253.626 463.74C239.201 458.102 226.988 449.323 216.985 437.405C197.532 439.786 178.447 443.984 159.733 450C115.548 459.877 89.7846 442.511 82.4427 397.901C80.4774 376.161 83.5309 355.169 91.6031 334.924C96.1529 325.984 102.832 319.114 111.641 314.313C110.307 313.072 108.78 312.118 107.061 311.45C71.3524 307.81 49.0241 288.535 40.0763 253.626C36.2438 236.351 32.0453 219.175 27.4809 202.099C19.2665 188.727 11.6329 174.987 4.58015 160.878C0.00797272 151.823 -0.373707 142.663 3.43511 133.397C20.4198 111.832 39.6947 92.5572 61.2595 75.5725C78.9417 61.7218 98.7891 52.3707 120.802 47.5191C113.236 31.1067 117.053 18.3204 132.252 9.1603C137.665 6.54348 143.007 4.06256 148.282 1.71756ZM156.298 323.473C147.477 317.032 137.555 313.406 126.527 312.595C133.808 300.125 139.724 286.957 144.275 273.092C146.49 290.35 150.498 307.144 156.298 323.473ZM442.557 323.473C448.357 307.144 452.364 290.35 454.58 273.092C459.131 286.957 465.047 300.125 472.328 312.595C461.3 313.406 451.377 317.032 442.557 323.473Z" fill="#895B29"/>
<path fill-rule="evenodd" clip-rule="evenodd" d="M198.664 348.664C197.9 358.588 197.138 368.511 196.374 378.435C157.626 324.954 143.694 265.412 154.58 199.809C151.566 196.727 148.894 197.108 146.565 200.954C146.636 238.135 138.239 273.248 121.374 306.298C120.61 307.061 119.848 307.824 119.084 308.588C115.05 305.839 110.661 303.74 105.916 302.29C84.5589 300.877 68.3375 291.144 57.2519 273.092C48.2768 253.798 42.5516 233.568 40.0764 212.405C36.0024 198.15 29.514 185.173 20.6107 173.473C16.5474 166.111 13.1123 158.478 10.3054 150.573C9.54201 146.756 9.54201 142.939 10.3054 139.122C18.7997 127.57 28.1508 116.692 38.3588 106.489C54.2893 90.9331 71.8466 77.5743 91.0306 66.4122C102.174 62.0843 113.624 58.8401 125.382 56.6794C126.985 63.0118 129.275 69.1187 132.252 75C128.878 75.9405 125.442 76.5131 121.947 76.7176C119.857 78.3961 119.284 80.4953 120.229 83.0153C123.751 83.9179 127.376 84.4904 131.107 84.7328C134.691 87.1695 137.935 90.0321 140.84 93.3206C149.284 107.518 155.01 122.785 158.015 139.122C159.924 145.229 161.832 145.229 163.74 139.122C164.204 134.871 164.204 130.673 163.74 126.527C189.156 160.71 222.553 183.038 263.931 193.511C269.784 194.663 275.7 195.236 281.679 195.229C288.002 194.818 294.3 194.628 300.573 194.656C327.631 219.299 347.669 214.527 360.687 180.344C361.908 173.405 359.618 171.877 353.817 175.763C350.984 186.99 344.686 195.578 334.924 201.527C329.726 202.365 324.765 201.602 320.038 199.237C314.694 195.42 309.352 191.603 304.008 187.786C269.103 189.507 237.425 180.347 208.969 160.305C166.588 126.537 138.725 83.2165 125.382 30.3435C126.387 25.312 129.058 21.3044 133.397 18.3206C140.448 13.634 148.082 10.9623 156.298 10.3053C158.015 12.0229 159.733 13.7405 161.45 15.458C169.72 33.1428 178.88 50.3184 188.931 66.9847C211.345 98.7086 242.071 114.548 281.107 114.504C282.633 112.595 282.633 110.687 281.107 108.779C263.738 106.344 246.944 101.764 230.725 95.0382C221.016 88.5512 212.047 81.1084 203.817 72.7099C203.053 71.5649 203.053 70.4199 203.817 69.2748C220.648 52.5558 239.922 39.3878 261.641 29.771C281.174 24.8048 301.021 23.2782 321.183 25.1908C355.737 35.0123 384.363 53.7145 407.061 81.2977C414.956 87.169 422.971 87.5508 431.107 82.4428C436.4 75.2381 442.126 68.3678 448.283 61.8321C459.034 54.7436 470.485 53.5986 482.634 58.3969C498.573 61.7886 513.077 68.2771 526.145 77.8626C549.606 95.5984 570.408 116.019 588.55 139.122C589.596 145.454 588.833 151.561 586.26 157.443C579.207 171.552 571.573 185.292 563.359 198.664C558.7 212.876 555.265 227.381 553.054 242.176C548.981 259.673 541.157 275.131 529.58 288.55C517.289 297.354 503.549 302.315 488.359 303.435C485.645 304.792 482.974 306.127 480.344 307.443C479.265 307.319 478.311 306.938 477.481 306.298C460.616 273.25 452.219 238.135 452.29 200.954C449.961 197.108 447.289 196.727 444.275 199.809C454.809 262.997 442.214 321.011 406.489 373.855C409.057 345.97 403.332 320.015 389.313 295.992C372.947 274.921 351.382 262.898 324.618 259.924C307.02 258.917 289.462 259.298 271.947 261.069C225.823 271.902 201.396 301.1 198.664 348.664Z" fill="#BEB684"/>
<path fill-rule="evenodd" clip-rule="evenodd" d="M465.458 76.145C468.914 75.9566 472.349 76.1473 475.763 76.7176C479.65 78.5098 480.032 80.7999 476.908 83.5878C473.473 83.9694 470.038 84.3512 466.603 84.7328C457.159 93.5145 450.48 104.011 446.565 116.221C444.428 125.911 441.757 135.452 438.55 144.847C435.938 141.913 434.602 138.477 434.542 134.542C436.632 118.921 441.784 104.417 450 91.0305C454.278 85.0333 459.431 80.0714 465.458 76.145Z" fill="#8A5E2C"/>
<path fill-rule="evenodd" clip-rule="evenodd" d="M365.84 92.1756C373.974 91.2347 381.227 93.1431 387.595 97.9008C389.576 108.493 390.149 119.18 389.313 129.962C388.74 130.534 388.168 131.107 387.595 131.679C384.117 132.064 380.872 133.018 377.863 134.542C374.448 132.668 371.013 130.759 367.557 128.817C365.321 119.444 363.986 109.901 363.55 100.191C363.483 97.2389 364.247 94.5672 365.84 92.1756Z" fill="#885A28"/>
<path fill-rule="evenodd" clip-rule="evenodd" d="M287.977 266.221C370.295 262.886 406.746 302.2 397.328 384.16C391.615 434.089 363.561 460.233 313.168 462.595C288.049 465.357 264.386 460.777 242.176 448.855C224.575 436.769 213.697 420.166 209.542 399.046C203.88 373.745 204.262 348.554 210.687 323.473C218.326 298.278 234.546 281.294 259.351 272.519C268.905 269.764 278.448 267.665 287.977 266.221Z" fill="#FEFEFD"/>
<path fill-rule="evenodd" clip-rule="evenodd" d="M257.061 313.168C284.542 313.168 312.023 313.168 339.504 313.168C339.504 321.947 339.504 330.725 339.504 339.504C336.728 339.857 334.057 339.474 331.489 338.359C329.866 332.818 328.339 327.284 326.908 321.756C313.555 321.183 300.196 320.992 286.832 321.183C286.832 334.542 286.832 347.9 286.832 361.26C295.238 361.45 303.634 361.26 312.023 360.687C313.929 356.518 315.266 352.128 316.031 347.519C317.976 346.482 320.076 346.1 322.328 346.374C322.328 358.969 322.328 371.565 322.328 384.16C320.419 384.16 318.512 384.16 316.603 384.16C315.692 379.176 314.165 374.405 312.023 369.847C303.634 369.275 295.238 369.085 286.832 369.275C286.832 383.779 286.832 398.282 286.832 412.786C302.103 412.978 317.371 412.786 332.634 412.214C334.708 405.693 336.235 399.013 337.214 392.176C339.885 392.176 342.558 392.176 345.229 392.176C345.229 401.717 345.229 411.26 345.229 420.802C315.839 420.802 286.451 420.802 257.061 420.802C257.061 418.893 257.061 416.985 257.061 415.076C261.614 414.512 266.004 413.367 270.229 411.641C270.993 381.87 270.993 352.099 270.229 322.328C266.004 320.603 261.614 319.458 257.061 318.893C257.061 316.984 257.061 315.077 257.061 313.168Z" fill="#174420"/>
<path fill-rule="evenodd" clip-rule="evenodd" d="M117.366 321.183C131.298 320.038 143.512 324.046 154.008 333.206C166.912 346.979 177.408 362.437 185.496 379.58C194.97 407.29 186.764 427.71 160.878 440.84C137.857 450.139 118.2 445.749 101.908 427.672C89.9518 406.034 86.8983 383.133 92.7481 358.97C94.6944 342.054 102.9 329.458 117.366 321.183Z" fill="#BEB684"/>
<path fill-rule="evenodd" clip-rule="evenodd" d="M464.313 321.183C477.158 318.783 487.655 322.601 495.802 332.634C509.539 358.562 512.21 385.661 503.817 413.931C497.085 432.882 483.727 443.187 463.74 444.847C436.091 446.548 418.152 434.334 409.924 408.206C408.545 398.351 409.69 388.808 413.359 379.58C421.55 361.85 432.428 346.01 445.992 332.061C451.642 327.524 457.748 323.898 464.313 321.183Z" fill="#BEB684"/>
<path fill-rule="evenodd" clip-rule="evenodd" d="M198.664 348.664C198.854 359.358 198.664 370.045 198.092 380.725C197.271 380.102 196.698 379.339 196.374 378.435C197.138 368.511 197.9 358.588 198.664 348.664Z" fill="#9F804E"/>
<path fill-rule="evenodd" clip-rule="evenodd" d="M197.519 393.321C198.95 393.409 199.904 394.173 200.382 395.611C202.806 407.081 206.813 417.958 212.405 428.244C202.809 430.361 193.268 432.27 183.779 433.969C194.166 422.462 198.747 408.913 197.519 393.321Z" fill="#BDB381"/>
<path fill-rule="evenodd" clip-rule="evenodd" d="M401.336 405.916C402.96 416.607 407.54 425.959 415.076 433.969C407.44 433.019 399.806 431.684 392.176 429.962C395.521 422.114 398.574 414.098 401.336 405.916Z" fill="#BBB07E"/>
</svg>
